<svg width="24" height="24" viewBox="0 0 24 24" fill="none" xmlns="http://www.w3.org/2000/svg">
<g clip-path="url(#clip0_106_1002)">
<path d="M18 8C18 6.4087 17.3679 4.88258 16.2426 3.75736C15.1174 2.63214 13.5913 2 12 2C10.4087 2 8.88258 2.63214 7.75736 3.75736C6.63214 4.88258 6 6.4087 6 8C6 11.3381 5.31777 13.5392 4.60399 14.9286C4.24229 15.6326 4.85069 17 5.64222 17H18.3578C19.1493 17 19.7577 15.6326 19.396 14.9286C18.6822 13.5392 18 11.3381 18 8Z" stroke="white" stroke-width="1.5" stroke-linecap="round" stroke-linejoin="round"/>
<path d="M13.73 20C13.5542 20.3031 13.3019 20.5547 12.9982 20.7295C12.6946 20.9044 12.3504 20.9965 12 20.9965C11.6496 20.9965 11.3054 20.9044 11.0018 20.7295C10.6982 20.5547 10.4458 20.3031 10.27 20" stroke="white" stroke-width="1.5" stroke-linecap="round" stroke-linejoin="round"/>
<circle cx="19" cy="5" r="5" fill="white"/>
<path d="M20.184 2.848H17.376V4.672C17.4987 4.50133 17.68 4.36267 17.92 4.256C18.16 4.144 18.4187 4.088 18.696 4.088C19.1387 4.088 19.4987 4.18133 19.776 4.368C20.0533 4.54933 20.2507 4.78667 20.368 5.08C20.4907 5.368 20.552 5.67467 20.552 6C20.552 6.384 20.48 6.728 20.336 7.032C20.192 7.336 19.9707 7.576 19.672 7.752C19.3787 7.928 19.0133 8.016 18.576 8.016C18.016 8.016 17.5627 7.872 17.216 7.584C16.8693 7.296 16.6587 6.912 16.584 6.432H17.296C17.3653 6.736 17.512 6.97333 17.736 7.144C17.96 7.31467 18.2427 7.4 18.584 7.4C19.0053 7.4 19.3227 7.27467 19.536 7.024C19.7493 6.768 19.856 6.432 19.856 6.016C19.856 5.6 19.7493 5.28 19.536 5.056C19.3227 4.82667 19.008 4.712 18.592 4.712C18.3093 4.712 18.0613 4.78133 17.848 4.92C17.64 5.05333 17.488 5.23733 17.392 5.472H16.704V2.208H20.184V2.848Z" fill="#1F3D76"/>
</g>
<defs>
<clipPath id="clip0_106_1002">
<rect width="24" height="24" fill="white"/>
</clipPath>
</defs>
</svg>
