<svg width="24" height="24" viewBox="0 0 24 24" fill="none" xmlns="http://www.w3.org/2000/svg">
<path d="M12 8.82385C9.2497 8.82385 7.01245 11.0611 7.01245 13.8114C7.01245 16.5616 9.2497 18.7989 12 18.7989C14.7502 18.7989 16.9875 16.5616 16.9875 13.8114C16.9875 11.0611 14.7502 8.82385 12 8.82385ZM12 17.4489C9.99445 17.4489 8.36245 15.8169 8.36245 13.8114C8.36245 11.8059 9.99445 10.1739 12 10.1739C14.0055 10.1739 15.6375 11.8059 15.6375 13.8114C15.6375 15.8169 14.0055 17.4489 12 17.4489Z" fill="#1F3D76"/>
<path d="M18.9608 8.57629C18.4815 8.57629 18.0923 8.96479 18.0923 9.44479C18.0923 9.92479 18.4808 10.3133 18.9608 10.3133C19.4408 10.3133 19.8285 9.92479 19.8285 9.44479C19.8285 8.96479 19.44 8.57629 18.9608 8.57629Z" fill="#1F3D76"/>
<path d="M20.2499 5.65131H17.1389L16.3867 3.83481C15.933 2.73831 14.8717 2.02881 13.6837 2.02881H10.3162C9.1282 2.02881 8.0677 2.73756 7.61395 3.83481L6.86095 5.65131H3.74995C2.13745 5.65131 0.824951 6.96381 0.824951 8.57631V19.0463C0.824951 20.6588 2.13745 21.9713 3.74995 21.9713H20.2499C21.8624 21.9713 23.1749 20.6588 23.1749 19.0463V8.57631C23.1749 6.96381 21.8624 5.65131 20.2499 5.65131ZM21.8249 19.0463C21.8249 19.9148 21.1192 20.6213 20.2499 20.6213H3.74995C2.88145 20.6213 2.17495 19.9148 2.17495 19.0463V8.57631C2.17495 7.70781 2.8807 7.00131 3.74995 7.00131H7.31245C7.58545 7.00131 7.83145 6.83706 7.9357 6.58431L8.8612 4.35081C9.10495 3.75981 9.67645 3.37881 10.3154 3.37881H13.6829C14.3227 3.37881 14.8934 3.76056 15.1379 4.35081L16.0627 6.58431C16.1669 6.83631 16.4129 7.00131 16.6859 7.00131H20.2499C21.1185 7.00131 21.8249 7.70781 21.8249 8.57631V19.0463Z" fill="#1F3D76"/>
<path d="M10.8286 6.20632H13.1723C13.5451 6.20632 13.8473 5.90407 13.8473 5.53132C13.8473 5.15857 13.5451 4.85632 13.1723 4.85632H10.8286C10.4558 4.85632 10.1536 5.15857 10.1536 5.53132C10.1536 5.90407 10.4551 6.20632 10.8286 6.20632Z" fill="#1F3D76"/>
</svg>
