<svg width="42" height="41" viewBox="0 0 42 41" fill="none" xmlns="http://www.w3.org/2000/svg">
<path d="M12.0312 26.9063H29.9688C30.9882 26.9063 31.9658 26.5013 32.6867 25.7805C33.4075 25.0596 33.8125 24.0819 33.8125 23.0625V11.5313C33.8125 10.5118 33.4075 9.53416 32.6867 8.81332C31.9658 8.09248 30.9882 7.68751 29.9688 7.68751H28.7772C28.5663 7.68754 28.3587 7.63552 28.1727 7.53606C27.9868 7.4366 27.8282 7.29278 27.7112 7.11736L26.6708 5.55551C26.3204 5.02844 25.845 4.59629 25.287 4.29761C24.729 3.99894 24.1057 3.84302 23.4728 3.84376H18.5272C17.8934 3.84217 17.2691 3.99768 16.7101 4.2964C16.1512 4.59512 15.6749 5.02772 15.3241 5.55551L14.2837 7.11736C14.1671 7.29206 14.0094 7.43543 13.8244 7.53486C13.6394 7.63428 13.4328 7.6867 13.2228 7.68751H12.0312C11.0118 7.68751 10.0342 8.09248 9.31331 8.81332C8.59247 9.53416 8.1875 10.5118 8.1875 11.5313V23.0625C8.1875 24.0819 8.59247 25.0596 9.31331 25.7805C10.0342 26.5013 11.0118 26.9063 12.0312 26.9063ZM10.75 11.5313C10.75 11.1915 10.885 10.8656 11.1253 10.6253C11.3656 10.385 11.6914 10.25 12.0312 10.25H13.2228C13.8566 10.2516 14.4809 10.0961 15.0399 9.79738C15.5988 9.49866 16.0751 9.06606 16.4259 8.53826L17.4663 6.97642C17.5829 6.80171 17.7406 6.65834 17.9256 6.55892C18.1106 6.4595 18.3172 6.40707 18.5272 6.40626H23.4728C23.6837 6.40623 23.8913 6.45825 24.0773 6.55771C24.2632 6.65717 24.4218 6.801 24.5388 6.97642L25.5792 8.53826C25.9296 9.06533 26.405 9.49748 26.963 9.79616C27.521 10.0948 28.1443 10.2508 28.7772 10.25H29.9688C30.3086 10.25 30.6345 10.385 30.8747 10.6253C31.115 10.8656 31.25 11.1915 31.25 11.5313V23.0625C31.25 23.4023 31.115 23.7282 30.8747 23.9685C30.6345 24.2088 30.3086 24.3438 29.9688 24.3438H12.0312C11.6914 24.3438 11.3656 24.2088 11.1253 23.9685C10.885 23.7282 10.75 23.4023 10.75 23.0625V11.5313Z" fill="white"/>
<path d="M19.3433 29.8442C19.1017 29.6108 18.778 29.4816 18.4421 29.4845C18.1062 29.4875 17.7848 29.6222 17.5473 29.8598C17.3097 30.0973 17.175 30.4187 17.172 30.7546C17.1691 31.0906 17.2983 31.4142 17.5317 31.6558L17.7751 31.9006C10.1798 31.3227 5.625 28.791 5.625 26.9063C5.66007 26.6099 5.75519 26.3237 5.90454 26.0653C6.0539 25.8069 6.25436 25.5817 6.49369 25.4033C6.74362 25.173 6.89179 24.8527 6.9056 24.5131C6.91942 24.1734 6.79775 23.8422 6.56736 23.5923C6.33697 23.3424 6.01673 23.1942 5.67709 23.1804C5.33746 23.1666 5.00624 23.2882 4.75631 23.5186C4.24968 23.9307 3.8366 24.4459 3.54455 25.03C3.2525 25.6141 3.08817 26.2537 3.0625 26.9063C3.0625 31.3304 10.3169 33.9429 18.0185 34.4823L17.5317 34.9692C17.4093 35.0873 17.3117 35.2287 17.2445 35.385C17.1774 35.5414 17.142 35.7095 17.1406 35.8796C17.1391 36.0497 17.1715 36.2184 17.2359 36.3759C17.3003 36.5334 17.3955 36.6764 17.5158 36.7967C17.6361 36.917 17.7791 37.0122 17.9366 37.0766C18.094 37.141 18.2628 37.1734 18.4329 37.1719C18.603 37.1705 18.7711 37.1351 18.9275 37.068C19.0838 37.0008 19.2252 36.9032 19.3433 36.7808L21.9058 34.2183C22.146 33.9781 22.281 33.6522 22.281 33.3125C22.281 32.9728 22.146 32.6469 21.9058 32.4067L19.3433 29.8442Z" fill="white"/>
<path d="M21 21.7813C22.0136 21.7813 23.0045 21.4807 23.8473 20.9175C24.6901 20.3544 25.347 19.554 25.7349 18.6175C26.1228 17.681 26.2243 16.6506 26.0265 15.6564C25.8288 14.6623 25.3407 13.7491 24.6239 13.0323C23.9072 12.3156 22.994 11.8275 21.9998 11.6297C21.0057 11.432 19.9752 11.5335 19.0387 11.9214C18.1023 12.3093 17.3019 12.9662 16.7387 13.809C16.1756 14.6518 15.875 15.6426 15.875 16.6563C15.875 18.0155 16.415 19.3191 17.3761 20.2802C18.3372 21.2413 19.6408 21.7813 21 21.7813ZM21 14.0938C21.5068 14.0938 22.0022 14.244 22.4236 14.5256C22.8451 14.8072 23.1735 15.2074 23.3674 15.6756C23.5614 16.1439 23.6121 16.6591 23.5133 17.1562C23.4144 17.6532 23.1703 18.1098 22.812 18.4682C22.4536 18.8266 21.997 19.0706 21.4999 19.1695C21.0028 19.2684 20.4876 19.2176 20.0194 19.0237C19.5511 18.8297 19.1509 18.5013 18.8694 18.0799C18.5878 17.6585 18.4375 17.1631 18.4375 16.6563C18.4375 15.9766 18.7075 15.3249 19.188 14.8443C19.6686 14.3637 20.3204 14.0938 21 14.0938Z" fill="white"/>
<path d="M37.2437 23.5186C36.9937 23.2882 36.6625 23.1666 36.3229 23.1804C35.9833 23.1942 35.663 23.3424 35.4326 23.5923C35.2022 23.8422 35.0806 24.1734 35.0944 24.5131C35.1082 24.8527 35.2564 25.173 35.5063 25.4033C35.7456 25.5817 35.9461 25.8069 36.0954 26.0653C36.2448 26.3237 36.3399 26.6099 36.375 26.9063C36.375 28.2682 33.8906 30.2375 28.4312 31.3291C28.1184 31.391 27.8399 31.5672 27.6501 31.8235C27.4603 32.0797 27.3729 32.3975 27.4049 32.7148C27.437 33.032 27.5861 33.3259 27.8233 33.5391C28.0605 33.7522 28.3686 33.8692 28.6875 33.8673C28.7736 33.8677 28.8594 33.8591 28.9437 33.8417C35.2039 32.586 38.9375 29.9979 38.9375 26.9063C38.9118 26.2537 38.7475 25.6141 38.4554 25.03C38.1634 24.4459 37.7503 23.9307 37.2437 23.5186Z" fill="white"/>
</svg>
