<svg width="24" height="25" viewBox="0 0 24 25" fill="none" xmlns="http://www.w3.org/2000/svg">
<path d="M5.7998 20.2C5.36647 20.2 5.00814 20.0584 4.7248 19.775C4.44147 19.4917 4.2998 19.1334 4.2998 18.7V6.30005C4.2998 5.86672 4.44147 5.50838 4.7248 5.22505C5.00814 4.94172 5.36647 4.80005 5.7998 4.80005H11.6748C11.7748 4.80005 11.8581 4.83338 11.9248 4.90005C11.9915 4.96672 12.0248 5.05005 12.0248 5.15005C12.0248 5.25005 11.9915 5.33338 11.9248 5.40005C11.8581 5.46672 11.7748 5.50005 11.6748 5.50005H5.7998C5.5998 5.50005 5.41647 5.58338 5.2498 5.75005C5.08314 5.91672 4.9998 6.10005 4.9998 6.30005V18.7C4.9998 18.9 5.08314 19.0834 5.2498 19.25C5.41647 19.4167 5.5998 19.5 5.7998 19.5H11.6748C11.7748 19.5 11.8581 19.5334 11.9248 19.6C11.9915 19.6667 12.0248 19.75 12.0248 19.85C12.0248 19.95 11.9915 20.0334 11.9248 20.1C11.8581 20.1667 11.7748 20.2 11.6748 20.2H5.7998ZM18.3248 12.85H9.5998C9.4998 12.85 9.41647 12.8167 9.3498 12.75C9.28314 12.6834 9.2498 12.6 9.2498 12.5C9.2498 12.4 9.28314 12.3167 9.3498 12.25C9.41647 12.1834 9.4998 12.15 9.5998 12.15H18.3248L16.3248 10.15C16.2581 10.0834 16.2206 10.0042 16.2123 9.91255C16.204 9.82088 16.2415 9.73338 16.3248 9.65005C16.4081 9.56672 16.4915 9.52505 16.5748 9.52505C16.6581 9.52505 16.7415 9.56672 16.8248 9.65005L19.1498 11.975C19.2998 12.125 19.3748 12.3 19.3748 12.5C19.3748 12.7 19.2998 12.875 19.1498 13.025L16.8248 15.35C16.7581 15.4167 16.679 15.4542 16.5873 15.4625C16.4956 15.4709 16.4081 15.4334 16.3248 15.35C16.2415 15.2667 16.1998 15.1834 16.1998 15.1C16.1998 15.0167 16.2415 14.9334 16.3248 14.85L18.3248 12.85Z" fill="#0E3B78" stroke="#1F3D76"/>
</svg>
