<svg width="24" height="24" viewBox="0 0 24 24" fill="none" xmlns="http://www.w3.org/2000/svg">
<path d="M13.4999 12L9.1499 7.65002C9.08324 7.58336 9.04574 7.50419 9.0374 7.41252C9.02907 7.32086 9.06657 7.23336 9.1499 7.15002C9.23324 7.06669 9.31657 7.02502 9.3999 7.02502C9.48324 7.02502 9.56657 7.06669 9.6499 7.15002L13.9749 11.475C14.0582 11.5584 14.1166 11.6417 14.1499 11.725C14.1832 11.8084 14.1999 11.9 14.1999 12C14.1999 12.1 14.1832 12.1917 14.1499 12.275C14.1166 12.3584 14.0582 12.4417 13.9749 12.525L9.6499 16.85C9.58324 16.9167 9.50407 16.9542 9.4124 16.9625C9.32074 16.9709 9.23324 16.9334 9.1499 16.85C9.06657 16.7667 9.0249 16.6834 9.0249 16.6C9.0249 16.5167 9.06657 16.4334 9.1499 16.35L13.4999 12Z" fill="#0E3B78" stroke="#1F3D76"/>
</svg>
