<svg width="24" height="24" viewBox="0 0 24 24" fill="none" xmlns="http://www.w3.org/2000/svg">
<path fill-rule="evenodd" clip-rule="evenodd" d="M3.80588 19.1291C4.18908 18.177 5.02753 16.0914 5.259 15.7125L14.6028 6.36868L16.5678 8.33546L7.24196 17.6613C7.02338 17.7794 6.21577 18.14 3.80588 19.1291ZM18.4119 2.55816L15.6033 5.36672L17.5709 7.3335L20.3794 4.52494C20.7189 4.18388 20.7189 3.62911 20.3794 3.2881L19.649 2.55816C19.3069 2.2171 18.754 2.2171 18.4119 2.55816ZM21.3825 5.52694C21.812 5.09508 22.0512 4.52002 22.0512 3.90633C22.0512 3.29293 21.812 2.71786 21.3825 2.286L20.6521 1.55607C19.757 0.662301 18.3039 0.662301 17.4114 1.55607L4.21997 14.7463C3.99619 14.9714 3.71072 15.5668 2.4736 18.6474C2.27555 19.1361 2.10581 19.5582 2.03381 19.7256C1.97981 19.8503 1.9515 19.9789 1.94892 20.1037V20.1075C1.94635 20.2361 1.9695 20.3606 2.02092 20.475C2.50186 22.0164 3.46121 22.6463 4.19166 22.9027C4.61344 23.0501 5.06096 23.1141 5.51878 23.1141C7.95441 23.1141 10.7604 21.3076 11.9924 20.4197C14.1657 18.8524 16.2026 18.1469 17.1826 18.623C17.7072 18.8781 17.9927 19.5306 18.0364 20.5637C18.0518 20.9547 18.3836 21.2589 18.772 21.242C19.1629 21.226 19.469 20.8963 19.451 20.5051C19.3687 18.5193 18.5096 17.6927 17.8023 17.3486C16.9587 16.9399 15.8708 16.962 14.5668 17.415C13.52 17.7786 12.3421 18.42 11.1642 19.2706C8.5305 21.1689 6.04088 22.0483 4.66233 21.5653C4.23797 21.4174 3.90877 21.1376 3.66183 20.7196C7.93383 18.9741 8.04183 18.8661 8.19103 18.7169L21.3825 5.52694Z" fill="#1F3D76"/>
</svg>
