<svg width="24" height="24" viewBox="0 0 24 24" fill="none" xmlns="http://www.w3.org/2000/svg">
<path d="M21.9975 6.0777C21.6575 5.8942 21.2735 5.80779 20.8876 5.82792C20.5017 5.84805 20.1288 5.97396 19.8097 6.19185L15.75 8.9163V6.75C15.7493 6.15347 15.5121 5.58157 15.0902 5.15976C14.6684 4.73794 14.0965 4.50067 13.5 4.5H3C2.40347 4.50067 1.83157 4.73794 1.40976 5.15976C0.987945 5.58157 0.750675 6.15347 0.75 6.75V17.25C0.750675 17.8465 0.987945 18.4184 1.40976 18.8402C1.83157 19.2621 2.40347 19.4993 3 19.5H13.5C14.0965 19.4993 14.6684 19.2621 15.0902 18.8402C15.5121 18.4184 15.7493 17.8465 15.75 17.25V15.0836L19.8105 17.8081C20.1288 18.0275 20.5018 18.1543 20.8879 18.1745C21.2739 18.1946 21.658 18.1073 21.9975 17.9223C22.3841 17.7076 22.7049 17.3918 22.9255 17.0086C23.1462 16.6254 23.2584 16.1894 23.25 15.7473V8.253C23.2584 7.81086 23.1463 7.37478 22.9256 6.99154C22.705 6.60831 22.3841 6.2924 21.9975 6.0777ZM14.25 17.25C14.2498 17.4488 14.1707 17.6395 14.0301 17.7801C13.8895 17.9207 13.6988 17.9998 13.5 18H3C2.80116 17.9998 2.61053 17.9207 2.46993 17.7801C2.32933 17.6395 2.25024 17.4488 2.25 17.25V6.75C2.25024 6.55116 2.32933 6.36053 2.46993 6.21993C2.61053 6.07933 2.80116 6.00024 3 6H13.5C13.6988 6.00024 13.8895 6.07933 14.0301 6.21993C14.1707 6.36053 14.2498 6.55116 14.25 6.75V17.25ZM21.75 15.747C21.7581 15.9173 21.7197 16.0867 21.6389 16.2369C21.5582 16.3871 21.438 16.5125 21.2915 16.5996C21.1917 16.656 21.0779 16.6825 20.9636 16.676C20.8492 16.6695 20.7391 16.6303 20.6465 16.563L15.75 13.2774V10.7226L20.6455 7.4376C20.7388 7.37129 20.849 7.33267 20.9632 7.3262C21.0775 7.31972 21.1913 7.34565 21.2915 7.401C21.4379 7.4881 21.558 7.61339 21.6388 7.76346C21.7196 7.91354 21.758 8.08275 21.75 8.253V15.747Z" fill="#1F3D76"/>
</svg>
