<svg width="151" height="150" viewBox="0 0 151 150" fill="none" xmlns="http://www.w3.org/2000/svg">
<path d="M66.6675 16.8012L8.58581 124.973C5.30456 131.087 10.0776 138.281 17.4182 138.281H133.582C140.922 138.281 145.696 131.087 142.414 124.973L84.3323 16.8012C80.6925 10.0243 70.3073 10.0243 66.6675 16.8012Z" fill="#FAD271"/>
<path d="M75.5001 37.179C74.6551 37.1661 73.816 37.3222 73.0321 37.6379C72.2482 37.9536 71.5352 38.4226 70.9349 39.0174C70.3346 39.6123 69.8591 40.321 69.5362 41.102C69.2134 41.883 69.0497 42.7206 69.0548 43.5657L70.2466 95.4668C70.2958 96.8207 70.8732 98.1015 71.8551 99.0348C72.8371 99.9681 74.1455 100.48 75.5001 100.46C76.8545 100.479 78.1626 99.9677 79.1443 99.0344C80.126 98.1011 80.7033 96.8205 80.7525 95.4668L81.9454 43.5657C81.9505 42.7206 81.7868 41.883 81.464 41.102C81.1412 40.321 80.6657 39.6123 80.0654 39.0174C79.465 38.4226 78.752 37.9536 77.9681 37.6379C77.1842 37.3222 76.3451 37.1661 75.5001 37.179Z" fill="#423E4F"/>
<path d="M75.5 124.479C79.3833 124.479 82.5312 121.331 82.5312 117.448C82.5312 113.565 79.3833 110.417 75.5 110.417C71.6167 110.417 68.4688 113.565 68.4688 117.448C68.4688 121.331 71.6167 124.479 75.5 124.479Z" fill="#423E4F"/>
</svg>
