<svg width="166" height="166" viewBox="0 0 166 166" fill="none" xmlns="http://www.w3.org/2000/svg">
<path d="M93.3951 87.2773L97.6628 83.0103C100.077 80.6013 103.017 78.7843 106.252 77.7019C106.634 77.5746 106.981 77.3601 107.266 77.0754C107.55 76.7907 107.765 76.4436 107.892 76.0617L109.727 70.5593C109.879 70.1023 109.901 69.6118 109.79 69.143C109.68 68.6741 109.441 68.2453 109.1 67.9046L98.0953 56.9003C97.7544 56.56 97.3256 56.3212 96.8568 56.2105C96.388 56.0998 95.8977 56.1217 95.4406 56.2736L89.9383 58.108C89.5563 58.2354 89.2092 58.45 88.9245 58.7347C88.6398 59.0195 88.4254 59.3666 88.2981 59.7486C87.2155 62.9831 85.3986 65.923 82.9896 68.3378L78.7226 72.6048C74.7944 76.5398 70.1484 79.6853 65.036 81.8713C63.6974 82.445 62.375 83.0468 61.0689 83.6769C60.5092 83.7511 59.9892 84.0068 59.5888 84.4048C50.197 89.0977 41.596 95.229 34.0968 102.577C34.03 102.631 8.22608 128.429 8.22608 128.429C6.28339 130.376 5.19238 133.014 5.19238 135.765C5.19238 138.516 6.28339 141.154 8.22608 143.101L22.8989 157.774C24.8463 159.716 27.4846 160.807 30.2352 160.807C32.9858 160.807 35.6241 159.716 37.5714 157.774C37.5714 157.774 63.3689 131.97 63.4237 131.901C70.7717 124.402 76.9031 115.801 81.5961 106.409C81.9937 106.008 82.2491 105.489 82.3234 104.93C82.9502 103.623 83.552 102.3 84.1289 100.963C86.3148 95.8507 89.4603 91.2051 93.3951 87.2773ZM67.0809 86.6393C72.8001 84.194 77.9976 80.6751 82.3921 76.273L86.6591 72.006C89.3217 69.3367 91.403 66.1451 92.772 62.6322L95.5602 61.7023L104.297 70.4394L103.367 73.2293C99.8546 74.5982 96.6631 76.6794 93.9939 79.3421L89.7266 83.6091C85.325 88.0035 81.8062 93.2005 79.3603 98.9191C78.9466 99.8849 78.5125 100.839 78.069 101.788L65.5966 100.402L64.2109 87.9294C65.1595 87.4871 66.1137 87.0527 67.0809 86.6393ZM61.3659 126.546L39.4535 104.634C45.4236 99.0674 52.0824 94.2883 59.2672 90.4138L60.6701 103.039C60.7352 103.624 60.9975 104.17 61.4139 104.586C61.8303 105.002 62.376 105.265 62.9613 105.33L75.5861 106.733C71.7117 113.918 66.9328 120.576 61.3659 126.546ZM43.0734 144.935L21.0648 122.926L35.7373 108.254L57.7456 130.263L43.0734 144.935ZM33.9032 154.105C32.9296 155.077 31.6104 155.622 30.235 155.622C28.8596 155.622 27.5404 155.077 26.5668 154.105L11.8946 139.433C10.9231 138.46 10.3776 137.141 10.3776 135.765C10.3776 134.39 10.9231 133.071 11.8946 132.097L17.3966 126.595L39.4052 148.604L33.9032 154.105Z" fill="url(#paint0_linear_372_1949)"/>
<path d="M63.4523 56.0224C64.0675 56.33 64.7797 56.3805 65.4323 56.1629C66.0848 55.9454 66.6242 55.4776 66.9318 54.8624L70.9148 46.897C72.5968 43.5689 75.4161 40.9541 78.8611 39.5271C82.3062 38.1 86.1486 37.9552 89.6913 39.119C91.6262 39.7581 93.4151 40.7745 94.9545 42.1096C96.494 43.4446 97.7534 45.0717 98.6598 46.8966L102.643 54.8624C102.953 55.4721 103.493 55.9344 104.143 56.1483C104.793 56.3623 105.501 56.3106 106.113 56.0046C106.725 55.6985 107.192 55.163 107.411 54.5146C107.63 53.8661 107.584 53.1575 107.282 52.5429L103.299 44.5765C101.58 41.1388 98.938 38.2476 95.6685 36.227C92.3989 34.2064 88.6312 33.1361 84.7876 33.1361C80.9441 33.1361 77.1764 34.2064 73.9068 36.227C70.6373 38.2476 67.9949 41.1388 66.2759 44.5765L62.2922 52.5429C61.9847 53.1582 61.9342 53.8704 62.1517 54.5229C62.3693 55.1754 62.8371 55.7148 63.4523 56.0224Z" fill="url(#paint1_linear_372_1949)"/>
<path d="M109.715 46.1311C109.685 46.4704 109.721 46.8124 109.822 47.1376C109.923 47.4628 110.088 47.7649 110.306 48.0266C110.524 48.2883 110.791 48.5044 111.093 48.6628C111.395 48.8211 111.724 48.9184 112.064 48.9492C112.144 48.9564 112.223 48.9603 112.302 48.9603C112.948 48.9594 113.572 48.717 114.049 48.2805C114.526 47.8441 114.823 47.245 114.882 46.6009L115.647 38.1816C116.015 34.1604 115.289 30.1146 113.547 26.4717C111.805 22.8289 109.111 19.7243 105.75 17.4861L104.566 16.6973C100.884 14.233 96.5533 12.9175 92.1228 12.9175C87.6924 12.9175 83.3617 14.233 79.6798 16.6973C79.3927 16.8846 79.1456 17.1269 78.9528 17.4103C78.76 17.6937 78.6252 18.0125 78.5563 18.3483C78.4874 18.6841 78.4858 19.0302 78.5515 19.3666C78.6172 19.703 78.7489 20.0231 78.9391 20.3083C79.1292 20.5935 79.374 20.8382 79.6593 21.0282C79.9446 21.2182 80.2647 21.3498 80.6011 21.4154C80.9376 21.4809 81.2837 21.4791 81.6194 21.4101C81.9552 21.3411 82.2739 21.2062 82.5572 21.0133C85.3878 19.1192 88.717 18.1082 92.1228 18.1082C95.5286 18.1082 98.8578 19.1192 101.688 21.0133L102.871 21.8021C105.455 23.5228 107.526 25.9094 108.865 28.7098C110.204 31.5101 110.762 34.6202 110.48 37.7115L109.715 46.1311Z" fill="url(#paint2_linear_372_1949)"/>
<path d="M131.802 74.6675C130.949 72.0857 129.593 69.6987 127.811 67.6447C126.03 65.5906 123.859 63.9103 121.423 62.7009L113.457 58.7179C112.843 58.4166 112.134 58.3705 111.486 58.5895C110.837 58.8085 110.302 59.2749 109.996 59.8871C109.69 60.4993 109.638 61.2076 109.852 61.8577C110.066 62.5078 110.528 63.047 111.138 63.3578L119.103 67.3402C120.928 68.2464 122.555 69.5056 123.89 71.0448C125.225 72.584 126.242 74.3727 126.881 76.3074C128.045 79.85 127.901 83.6926 126.474 87.1378C125.047 90.583 122.432 93.4023 119.104 95.0842L111.138 99.0682C110.829 99.2178 110.552 99.4272 110.325 99.6845C110.097 99.9417 109.923 100.242 109.812 100.567C109.701 100.892 109.656 101.236 109.679 101.578C109.702 101.921 109.794 102.256 109.947 102.563C110.101 102.87 110.314 103.144 110.574 103.368C110.834 103.592 111.136 103.763 111.463 103.869C111.789 103.976 112.134 104.016 112.476 103.989C112.819 103.961 113.152 103.865 113.457 103.708L121.424 99.7251C125.88 97.4968 129.383 93.736 131.289 89.1331C133.196 84.5301 133.378 79.394 131.802 74.6675Z" fill="url(#paint3_linear_372_1949)"/>
<path d="M149.303 86.32C151.767 82.6381 153.083 78.3074 153.083 73.877C153.083 69.4465 151.767 65.1158 149.303 61.4339L148.514 60.2509C146.276 56.8901 143.171 54.1964 139.528 52.4544C135.885 50.7124 131.84 49.9867 127.819 50.3541L119.399 51.1196C119.059 51.1486 118.727 51.2447 118.424 51.4023C118.12 51.5599 117.851 51.7759 117.632 52.0379C117.412 52.2999 117.246 52.6027 117.144 52.929C117.042 53.2552 117.006 53.5984 117.037 53.9388C117.067 54.2793 117.165 54.6102 117.325 54.9127C117.484 55.2151 117.702 55.4831 117.965 55.7012C118.228 55.9193 118.532 56.0832 118.859 56.1835C119.185 56.2838 119.529 56.3185 119.869 56.2857L128.289 55.5199C131.38 55.2379 134.49 55.7961 137.29 57.1353C140.09 58.4745 142.477 60.545 144.198 63.1283L144.987 64.3114C146.881 67.1419 147.892 70.4711 147.892 73.877C147.892 77.2828 146.881 80.612 144.987 83.4425C144.794 83.7258 144.659 84.0446 144.59 84.3804C144.521 84.7161 144.519 85.0622 144.585 85.3987C144.65 85.7351 144.782 86.0552 144.972 86.3405C145.162 86.6258 145.407 86.8706 145.692 87.0607C145.977 87.2509 146.297 87.3826 146.634 87.4483C146.97 87.514 147.316 87.5123 147.652 87.4435C147.988 87.3746 148.306 87.2398 148.59 87.047C148.873 86.8541 149.116 86.6071 149.303 86.32Z" fill="url(#paint4_linear_372_1949)"/>
<path d="M129.687 25.9375C129.687 25.2496 129.414 24.5899 128.928 24.1034C128.441 23.617 127.781 23.3438 127.094 23.3438C126.406 23.3438 125.746 23.617 125.259 24.1034C124.773 24.5899 124.5 25.2496 124.5 25.9375V29.0442C124.497 31.7152 123.875 34.3492 122.684 36.7398L119.588 42.934C119.344 43.4209 119.26 43.972 119.348 44.5093C119.435 45.0466 119.689 45.5427 120.074 45.9276C120.459 46.3125 120.955 46.5665 121.492 46.6537C122.029 46.7409 122.581 46.6569 123.067 46.4135L126.106 44.8942C128.126 43.8777 130.326 43.2718 132.581 43.1116C134.836 42.9514 137.101 43.24 139.244 43.9608C139.896 44.1783 140.609 44.1276 141.224 43.8199C141.839 43.5121 142.307 42.9726 142.524 42.32C142.742 41.6673 142.691 40.955 142.383 40.3397C142.076 39.7245 141.536 39.2566 140.884 39.0392C136.537 37.5776 131.845 37.4952 127.45 38.8035C128.919 35.7596 129.683 32.4242 129.687 29.0445V25.9375Z" fill="url(#paint5_linear_372_1949)"/>
<path d="M150.7 5.91697C150.309 5.53849 149.808 5.29271 149.27 5.21445C148.731 5.13618 148.181 5.2294 147.698 5.4809L140.424 9.27263C139.997 9.49528 139.641 9.8324 139.394 10.2462C139.148 10.6601 139.022 11.1343 139.03 11.6158L139.074 14.2095L136.214 17.1657C135.736 17.6602 135.474 18.3243 135.485 19.0121C135.497 19.6999 135.781 20.355 136.275 20.8333L145.597 29.8498C146.081 30.3177 146.728 30.5793 147.4 30.5793H147.444C148.132 30.5676 148.787 30.2833 149.265 29.7889L152.124 26.8323L154.718 26.7892C155.199 26.7812 155.669 26.6392 156.075 26.3792C156.48 26.1191 156.805 25.7513 157.014 25.3169L160.559 17.9205C160.794 17.4296 160.869 16.8772 160.773 16.3414C160.677 15.8056 160.415 15.3136 160.023 14.9351L150.7 5.91697ZM153.027 21.627L150.963 21.6617C150.622 21.6672 150.286 21.7399 149.973 21.8754C149.66 22.011 149.378 22.2069 149.141 22.4518L147.338 24.3164L141.745 18.9061L143.548 17.0419C143.785 16.7972 143.971 16.5082 144.096 16.1914C144.222 15.8746 144.283 15.5363 144.277 15.1958L144.243 13.1308L148.437 10.9453L155.072 17.3622L153.027 21.627Z" fill="url(#paint6_linear_372_1949)"/>
<path d="M45.9239 33.6432L50.5635 30.1634C50.836 29.959 51.0656 29.703 51.2391 29.4099C51.4127 29.1168 51.5268 28.7924 51.5749 28.4552C51.6231 28.118 51.6044 27.7746 51.5199 27.4447C51.4353 27.1147 51.2866 26.8046 51.0823 26.5321C50.8779 26.2596 50.6218 26.0301 50.3288 25.8565C50.0357 25.683 49.7113 25.5689 49.3741 25.5207C49.0369 25.4725 48.6935 25.4912 48.3635 25.5758C48.0336 25.6603 47.7235 25.809 47.451 26.0134L42.8114 29.4932C42.2611 29.906 41.8973 30.5204 41.8 31.2014C41.7027 31.8824 41.8799 32.5741 42.2927 33.1245C42.7054 33.6748 43.3199 34.0386 44.0009 34.1359C44.6819 34.2332 45.3736 34.056 45.9239 33.6432Z" fill="url(#paint7_linear_372_1949)"/>
<path d="M64.2755 30.0109C64.6776 30.0108 65.0742 29.9169 65.4336 29.7366L70.6211 27.1429C71.2364 26.8352 71.7043 26.2957 71.9218 25.6431C72.1393 24.9905 72.0887 24.2782 71.781 23.6629C71.4734 23.0476 70.9339 22.5797 70.2813 22.3622C69.6286 22.1447 68.9163 22.1953 68.301 22.503L63.1135 25.0967C62.5905 25.358 62.171 25.7883 61.9232 26.3178C61.6754 26.8473 61.6138 27.4451 61.7483 28.014C61.8829 28.583 62.2057 29.0898 62.6644 29.4523C63.1231 29.8148 63.6909 30.0116 64.2755 30.0109Z" fill="url(#paint8_linear_372_1949)"/>
<path d="M59.951 13.909C59.904 13.2236 59.5879 12.5846 59.0717 12.1314C58.5554 11.6782 57.8808 11.4475 57.1951 11.4897L51.4062 11.8664C50.7346 11.9102 50.1064 12.2134 49.6542 12.7119C49.202 13.2103 48.9612 13.865 48.9828 14.5377C49.0043 15.2103 49.2865 15.8483 49.7697 16.3168C50.2528 16.7853 50.8992 17.0476 51.5722 17.0484C51.629 17.0484 51.6863 17.0464 51.7437 17.0429L57.5314 16.6648C58.2176 16.6201 58.858 16.3047 59.3118 15.7879C59.7655 15.2711 59.9954 14.5953 59.951 13.909Z" fill="url(#paint9_linear_372_1949)"/>
<path d="M134.534 112.573L130.443 116.684C129.958 117.172 129.686 117.832 129.688 118.52C129.689 119.208 129.964 119.867 130.452 120.352C130.939 120.838 131.6 121.109 132.288 121.108C132.976 121.106 133.635 120.831 134.12 120.343L138.211 116.232C138.451 115.991 138.642 115.705 138.771 115.389C138.901 115.074 138.967 114.737 138.966 114.396C138.966 114.056 138.898 113.719 138.766 113.404C138.635 113.09 138.444 112.804 138.202 112.564C137.961 112.324 137.674 112.133 137.359 112.004C137.044 111.874 136.707 111.808 136.366 111.809C136.025 111.81 135.688 111.877 135.374 112.009C135.06 112.14 134.774 112.331 134.534 112.573Z" fill="url(#paint10_linear_372_1949)"/>
<path d="M143.921 92.4649C143.354 92.0748 142.656 91.9257 141.979 92.0505C141.303 92.1752 140.704 92.5636 140.313 93.1302L137.024 97.9069C136.829 98.1874 136.692 98.5036 136.62 98.8372C136.548 99.1708 136.542 99.5154 136.604 99.8512C136.665 100.187 136.792 100.507 136.978 100.794C137.163 101.081 137.403 101.328 137.684 101.521C137.965 101.715 138.282 101.851 138.616 101.922C138.95 101.993 139.294 101.997 139.63 101.935C139.966 101.872 140.285 101.744 140.571 101.558C140.857 101.372 141.104 101.131 141.296 100.849L144.586 96.0722C144.976 95.5056 145.125 94.8073 145 94.1308C144.876 93.4543 144.487 92.8551 143.921 92.4649Z" fill="url(#paint11_linear_372_1949)"/>
<path d="M151.936 105.536C151.262 105.397 150.561 105.53 149.985 105.908C149.41 106.285 149.009 106.876 148.869 107.549L147.691 113.228C147.619 113.562 147.614 113.908 147.676 114.244C147.738 114.581 147.866 114.902 148.053 115.189C148.24 115.475 148.481 115.722 148.764 115.915C149.047 116.108 149.365 116.244 149.7 116.313C150.035 116.383 150.38 116.385 150.716 116.32C151.052 116.256 151.372 116.125 151.658 115.937C151.943 115.748 152.188 115.504 152.379 115.22C152.57 114.936 152.703 114.617 152.77 114.282L153.948 108.603C154.088 107.929 153.954 107.228 153.577 106.653C153.199 106.078 152.609 105.676 151.936 105.536Z" fill="url(#paint12_linear_372_1949)"/>
<path d="M106.344 116.719C105.656 116.719 104.996 116.992 104.51 117.478C104.023 117.965 103.75 118.625 103.75 119.312V124.5C103.75 125.188 104.023 125.848 104.51 126.334C104.996 126.82 105.656 127.094 106.344 127.094C107.032 127.094 107.691 126.82 108.178 126.334C108.664 125.848 108.938 125.188 108.938 124.5V119.312C108.938 118.625 108.664 117.965 108.178 117.478C107.691 116.992 107.032 116.719 106.344 116.719Z" fill="url(#paint13_linear_372_1949)"/>
<path d="M106.344 137.469C105.656 137.469 104.996 137.742 104.51 138.228C104.023 138.715 103.75 139.375 103.75 140.062V145.25C103.75 145.938 104.023 146.598 104.51 147.084C104.996 147.57 105.656 147.844 106.344 147.844C107.032 147.844 107.691 147.57 108.178 147.084C108.664 146.598 108.938 145.938 108.938 145.25V140.062C108.938 139.375 108.664 138.715 108.178 138.228C107.691 137.742 107.032 137.469 106.344 137.469Z" fill="url(#paint14_linear_372_1949)"/>
<path d="M119.312 129.688H114.125C113.437 129.688 112.777 129.961 112.291 130.447C111.805 130.934 111.531 131.593 111.531 132.281C111.531 132.969 111.805 133.629 112.291 134.115C112.777 134.602 113.437 134.875 114.125 134.875H119.312C120 134.875 120.66 134.602 121.147 134.115C121.633 133.629 121.906 132.969 121.906 132.281C121.906 131.593 121.633 130.934 121.147 130.447C120.66 129.961 120 129.688 119.312 129.688Z" fill="url(#paint15_linear_372_1949)"/>
<path d="M101.156 132.281C101.156 131.593 100.883 130.934 100.397 130.447C99.9101 129.961 99.2504 129.688 98.5625 129.688H93.375C92.6871 129.688 92.0274 129.961 91.5409 130.447C91.0545 130.934 90.7812 131.593 90.7812 132.281C90.7812 132.969 91.0545 133.629 91.5409 134.115C92.0274 134.602 92.6871 134.875 93.375 134.875H98.5625C99.2504 134.875 99.9101 134.602 100.397 134.115C100.883 133.629 101.156 132.969 101.156 132.281Z" fill="url(#paint16_linear_372_1949)"/>
<path d="M99.0075 121.277C98.5211 120.79 97.8613 120.517 97.1734 120.517C96.4855 120.517 95.8257 120.79 95.3393 121.277C94.8529 121.763 94.5796 122.423 94.5796 123.111C94.5796 123.799 94.8529 124.459 95.3393 124.945L99.0072 128.613C99.4937 129.1 100.153 129.373 100.841 129.373C101.529 129.373 102.189 129.1 102.676 128.613C103.162 128.127 103.436 127.467 103.436 126.779C103.436 126.091 103.162 125.431 102.676 124.945L99.0075 121.277Z" fill="url(#paint17_linear_372_1949)"/>
<path d="M113.68 135.949C113.194 135.463 112.534 135.189 111.846 135.189C111.158 135.189 110.498 135.463 110.012 135.949C109.525 136.436 109.252 137.095 109.252 137.783C109.252 138.471 109.525 139.131 110.012 139.618L113.68 143.286C114.166 143.772 114.826 144.045 115.514 144.045C116.202 144.045 116.862 143.772 117.348 143.286C117.835 142.799 118.108 142.139 118.108 141.451C118.108 140.764 117.835 140.104 117.348 139.617L113.68 135.949Z" fill="url(#paint18_linear_372_1949)"/>
<path d="M111.846 129.373C112.187 129.373 112.524 129.306 112.839 129.176C113.154 129.046 113.44 128.854 113.68 128.613L117.348 124.945C117.589 124.704 117.78 124.418 117.91 124.104C118.041 123.789 118.108 123.452 118.108 123.111C118.108 122.77 118.041 122.433 117.91 122.118C117.78 121.804 117.589 121.518 117.348 121.277C117.107 121.036 116.821 120.845 116.507 120.715C116.192 120.584 115.855 120.517 115.514 120.517C115.173 120.517 114.836 120.584 114.521 120.715C114.207 120.845 113.921 121.036 113.68 121.277L110.012 124.945C109.649 125.308 109.402 125.77 109.302 126.273C109.202 126.776 109.253 127.298 109.449 127.772C109.646 128.246 109.978 128.651 110.405 128.936C110.832 129.221 111.333 129.373 111.846 129.373Z" fill="url(#paint19_linear_372_1949)"/>
<path d="M99.0072 135.949L95.3393 139.617C95.0984 139.858 94.9074 140.144 94.777 140.459C94.6467 140.774 94.5796 141.111 94.5796 141.451C94.5796 141.792 94.6467 142.129 94.777 142.444C94.9074 142.759 95.0984 143.045 95.3393 143.286C95.5802 143.526 95.8661 143.717 96.1808 143.848C96.4955 143.978 96.8328 144.045 97.1734 144.045C97.514 144.045 97.8513 143.978 98.166 143.848C98.4807 143.717 98.7667 143.526 99.0075 143.286L102.676 139.618C103.162 139.131 103.436 138.471 103.436 137.783C103.436 137.095 103.162 136.436 102.676 135.949C102.189 135.463 101.529 135.189 100.841 135.189C100.153 135.189 99.4937 135.463 99.0072 135.949Z" fill="url(#paint20_linear_372_1949)"/>
<path d="M42.7969 46.6875C42.7969 45.9996 42.5236 45.3399 42.0372 44.8534C41.5508 44.367 40.891 44.0938 40.2031 44.0938C39.5152 44.0938 38.8555 44.367 38.3691 44.8534C37.8826 45.3399 37.6094 45.9996 37.6094 46.6875V49.2812C37.6094 49.9692 37.8826 50.6289 38.3691 51.1153C38.8555 51.6017 39.5152 51.875 40.2031 51.875C40.891 51.875 41.5508 51.6017 42.0372 51.1153C42.5236 50.6289 42.7969 49.9692 42.7969 49.2812V46.6875Z" fill="url(#paint21_linear_372_1949)"/>
<path d="M40.2031 64.8438C39.5152 64.8438 38.8555 65.117 38.3691 65.6034C37.8826 66.0899 37.6094 66.7496 37.6094 67.4375V70.0312C37.6094 70.7192 37.8826 71.3789 38.3691 71.8653C38.8555 72.3517 39.5152 72.625 40.2031 72.625C40.891 72.625 41.5508 72.3517 42.0372 71.8653C42.5236 71.3789 42.7969 70.7192 42.7969 70.0312V67.4375C42.7969 66.7496 42.5236 66.0899 42.0372 65.6034C41.5508 65.117 40.891 64.8438 40.2031 64.8438Z" fill="url(#paint22_linear_372_1949)"/>
<path d="M33.7188 58.3594C33.7188 57.6715 33.4455 57.0117 32.9591 56.5253C32.4726 56.0389 31.8129 55.7656 31.125 55.7656H28.5312C27.8433 55.7656 27.1836 56.0389 26.6972 56.5253C26.2108 57.0117 25.9375 57.6715 25.9375 58.3594C25.9375 59.0473 26.2108 59.707 26.6972 60.1934C27.1836 60.6799 27.8433 60.9531 28.5312 60.9531H31.125C31.8129 60.9531 32.4726 60.6799 32.9591 60.1934C33.4455 59.707 33.7188 59.0473 33.7188 58.3594Z" fill="url(#paint23_linear_372_1949)"/>
<path d="M54.4688 58.3594C54.4688 57.6715 54.1955 57.0117 53.7091 56.5253C53.2226 56.0389 52.5629 55.7656 51.875 55.7656H49.2812C48.5933 55.7656 47.9336 56.0389 47.4472 56.5253C46.9608 57.0117 46.6875 57.6715 46.6875 58.3594C46.6875 59.0473 46.9608 59.707 47.4472 60.1934C47.9336 60.6799 48.5933 60.9531 49.2812 60.9531H51.875C52.5629 60.9531 53.2226 60.6799 53.7091 60.1934C54.1955 59.707 54.4688 59.0473 54.4688 58.3594Z" fill="url(#paint24_linear_372_1949)"/>
<path d="M35.6178 50.106L33.7837 48.2719C33.5434 48.0287 33.2574 47.8353 32.9421 47.703C32.6268 47.5707 32.2884 47.502 31.9465 47.501C31.6045 47.4999 31.2658 47.5665 30.9496 47.6969C30.6335 47.8272 30.3463 48.0188 30.1045 48.2606C29.8627 48.5024 29.6711 48.7896 29.5407 49.1057C29.4103 49.4218 29.3437 49.7605 29.3447 50.1025C29.3458 50.4444 29.4144 50.7828 29.5467 51.0981C29.6789 51.4134 29.8723 51.6995 30.1155 51.9398L31.9496 53.7739C32.1905 54.0148 32.4764 54.2058 32.7911 54.3362C33.1058 54.4665 33.4431 54.5336 33.7837 54.5336C34.1243 54.5336 34.4616 54.4665 34.7763 54.3362C35.091 54.2058 35.377 54.0148 35.6178 53.7739C35.8587 53.533 36.0497 53.2471 36.1801 52.9324C36.3104 52.6177 36.3775 52.2804 36.3775 51.9398C36.3775 51.5992 36.3104 51.2619 36.1801 50.9472C36.0497 50.6325 35.8587 50.3466 35.6178 50.1057V50.106Z" fill="url(#paint25_linear_372_1949)"/>
<path d="M46.6225 68.4468C46.8623 68.692 47.1484 68.8873 47.4643 69.0212C47.7801 69.1552 48.1194 69.2251 48.4624 69.2271C48.8055 69.229 49.1455 69.1628 49.4628 69.0324C49.7801 68.902 50.0684 68.71 50.311 68.4674C50.5536 68.2248 50.7456 67.9365 50.876 67.6192C51.0064 67.3019 51.0726 66.9619 51.0706 66.6188C51.0687 66.2758 50.9988 65.9365 50.8648 65.6207C50.7309 65.3048 50.5356 65.0187 50.2903 64.7789L48.4562 62.9448C48.2154 62.7039 47.9294 62.5129 47.6147 62.3825C47.3001 62.2521 46.9628 62.1851 46.6221 62.1851C46.2815 62.1851 45.9442 62.2521 45.6295 62.3825C45.3148 62.5129 45.0289 62.7039 44.788 62.9448C44.5472 63.1856 44.3561 63.4716 44.2258 63.7863C44.0954 64.101 44.0283 64.4383 44.0283 64.7789C44.0283 65.1195 44.0954 65.4568 44.2258 65.7715C44.3561 66.0862 44.5472 66.3721 44.788 66.613L46.6225 68.4468Z" fill="url(#paint26_linear_372_1949)"/>
<path d="M31.9498 69.2064C32.2905 69.2068 32.6279 69.14 32.9427 69.0096C33.2574 68.8792 33.5433 68.6879 33.7839 68.4467L35.618 66.6126C36.1044 66.1262 36.3777 65.4664 36.3777 64.7785C36.3777 64.0906 36.1044 63.4308 35.618 62.9444C35.1316 62.458 34.4718 62.1847 33.7839 62.1847C33.096 62.1847 32.4362 62.458 31.9498 62.9444L30.1157 64.7788C29.7529 65.1416 29.5059 65.6037 29.4058 66.1069C29.3057 66.61 29.3571 67.1316 29.5534 67.6055C29.7497 68.0795 30.0822 68.4846 30.5087 68.7696C30.9353 69.0546 31.4368 69.2067 31.9498 69.2067V69.2064Z" fill="url(#paint27_linear_372_1949)"/>
<path d="M46.6226 48.2719L44.7885 50.106C44.3021 50.5925 44.0288 51.2522 44.0288 51.9401C44.0288 52.6281 44.3021 53.2878 44.7885 53.7742C45.275 54.2607 45.9347 54.5339 46.6226 54.5339C47.3106 54.5339 47.9703 54.2607 48.4567 53.7742L50.2908 51.9401C50.7773 51.4537 51.0505 50.7939 51.0505 50.106C51.0505 49.4181 50.7773 48.7584 50.2908 48.2719C49.8044 47.7855 49.1447 47.5122 48.4567 47.5122C47.7688 47.5122 47.1091 47.7855 46.6226 48.2719Z" fill="url(#paint28_linear_372_1949)"/>
<path d="M40.2031 60.6289C41.6356 60.6289 42.7969 59.4676 42.7969 58.0352C42.7969 56.6027 41.6356 55.4414 40.2031 55.4414C38.7706 55.4414 37.6094 56.6027 37.6094 58.0352C37.6094 59.4676 38.7706 60.6289 40.2031 60.6289Z" fill="url(#paint29_linear_372_1949)"/>
<defs>
<linearGradient id="paint0_linear_372_1949" x1="109.86" y1="120.467" x2="6.94941" y2="119.409" gradientUnits="userSpaceOnUse">
<stop stop-color="#03A242"/>
<stop offset="1" stop-color="#428B57"/>
</linearGradient>
<linearGradient id="paint1_linear_372_1949" x1="107.547" y1="47.3699" x2="62.7964" y2="46.4655" gradientUnits="userSpaceOnUse">
<stop stop-color="#03A242"/>
<stop offset="1" stop-color="#428B57"/>
</linearGradient>
<linearGradient id="paint2_linear_372_1949" x1="115.74" y1="35.0688" x2="79.1288" y2="34.68" gradientUnits="userSpaceOnUse">
<stop stop-color="#03A242"/>
<stop offset="1" stop-color="#428B57"/>
</linearGradient>
<linearGradient id="paint3_linear_372_1949" x1="132.864" y1="86.4436" x2="110.061" y2="86.3243" gradientUnits="userSpaceOnUse">
<stop stop-color="#03A242"/>
<stop offset="1" stop-color="#428B57"/>
</linearGradient>
<linearGradient id="paint4_linear_372_1949" x1="153.083" y1="73.1453" x2="117.631" y2="72.7924" gradientUnits="userSpaceOnUse">
<stop stop-color="#03A242"/>
<stop offset="1" stop-color="#428B57"/>
</linearGradient>
<linearGradient id="paint5_linear_372_1949" x1="142.657" y1="37.6903" x2="119.706" y2="37.4543" gradientUnits="userSpaceOnUse">
<stop stop-color="#03A242"/>
<stop offset="1" stop-color="#428B57"/>
</linearGradient>
<linearGradient id="paint6_linear_372_1949" x1="160.814" y1="20.7929" x2="135.91" y2="20.5375" gradientUnits="userSpaceOnUse">
<stop stop-color="#03A242"/>
<stop offset="1" stop-color="#428B57"/>
</linearGradient>
<linearGradient id="paint7_linear_372_1949" x1="51.601" y1="30.8214" x2="41.9392" y2="30.7088" gradientUnits="userSpaceOnUse">
<stop stop-color="#03A242"/>
<stop offset="1" stop-color="#428B57"/>
</linearGradient>
<linearGradient id="paint8_linear_372_1949" x1="72.0549" y1="27.0117" x2="61.8537" y2="26.8719" gradientUnits="userSpaceOnUse">
<stop stop-color="#03A242"/>
<stop offset="1" stop-color="#428B57"/>
</linearGradient>
<linearGradient id="paint9_linear_372_1949" x1="59.9564" y1="14.9041" x2="49.169" y2="14.6853" gradientUnits="userSpaceOnUse">
<stop stop-color="#03A242"/>
<stop offset="1" stop-color="#428B57"/>
</linearGradient>
<linearGradient id="paint10_linear_372_1949" x1="138.966" y1="117.524" x2="129.843" y2="117.43" gradientUnits="userSpaceOnUse">
<stop stop-color="#03A242"/>
<stop offset="1" stop-color="#428B57"/>
</linearGradient>
<linearGradient id="paint11_linear_372_1949" x1="145.043" y1="98.1357" x2="136.704" y2="98.0627" gradientUnits="userSpaceOnUse">
<stop stop-color="#03A242"/>
<stop offset="1" stop-color="#428B57"/>
</linearGradient>
<linearGradient id="paint12_linear_372_1949" x1="154.002" y1="112.172" x2="147.739" y2="112.134" gradientUnits="userSpaceOnUse">
<stop stop-color="#03A242"/>
<stop offset="1" stop-color="#428B57"/>
</linearGradient>
<linearGradient id="paint13_linear_372_1949" x1="108.938" y1="123.095" x2="103.837" y2="123.069" gradientUnits="userSpaceOnUse">
<stop stop-color="#03A242"/>
<stop offset="1" stop-color="#428B57"/>
</linearGradient>
<linearGradient id="paint14_linear_372_1949" x1="108.938" y1="143.845" x2="103.837" y2="143.819" gradientUnits="userSpaceOnUse">
<stop stop-color="#03A242"/>
<stop offset="1" stop-color="#428B57"/>
</linearGradient>
<linearGradient id="paint15_linear_372_1949" x1="121.906" y1="132.876" x2="111.709" y2="132.666" gradientUnits="userSpaceOnUse">
<stop stop-color="#03A242"/>
<stop offset="1" stop-color="#428B57"/>
</linearGradient>
<linearGradient id="paint16_linear_372_1949" x1="101.156" y1="132.876" x2="90.9586" y2="132.666" gradientUnits="userSpaceOnUse">
<stop stop-color="#03A242"/>
<stop offset="1" stop-color="#428B57"/>
</linearGradient>
<linearGradient id="paint17_linear_372_1949" x1="103.436" y1="125.96" x2="94.7283" y2="125.87" gradientUnits="userSpaceOnUse">
<stop stop-color="#03A242"/>
<stop offset="1" stop-color="#428B57"/>
</linearGradient>
<linearGradient id="paint18_linear_372_1949" x1="118.108" y1="140.632" x2="109.401" y2="140.543" gradientUnits="userSpaceOnUse">
<stop stop-color="#03A242"/>
<stop offset="1" stop-color="#428B57"/>
</linearGradient>
<linearGradient id="paint19_linear_372_1949" x1="118.108" y1="125.96" x2="109.401" y2="125.87" gradientUnits="userSpaceOnUse">
<stop stop-color="#03A242"/>
<stop offset="1" stop-color="#428B57"/>
</linearGradient>
<linearGradient id="paint20_linear_372_1949" x1="103.436" y1="140.632" x2="94.7283" y2="140.543" gradientUnits="userSpaceOnUse">
<stop stop-color="#03A242"/>
<stop offset="1" stop-color="#428B57"/>
</linearGradient>
<linearGradient id="paint21_linear_372_1949" x1="42.7969" y1="48.876" x2="37.6962" y2="48.841" gradientUnits="userSpaceOnUse">
<stop stop-color="#03A242"/>
<stop offset="1" stop-color="#428B57"/>
</linearGradient>
<linearGradient id="paint22_linear_372_1949" x1="42.7969" y1="69.626" x2="37.6962" y2="69.591" gradientUnits="userSpaceOnUse">
<stop stop-color="#03A242"/>
<stop offset="1" stop-color="#428B57"/>
</linearGradient>
<linearGradient id="paint23_linear_372_1949" x1="33.7188" y1="58.9538" x2="26.0691" y2="58.8358" gradientUnits="userSpaceOnUse">
<stop stop-color="#03A242"/>
<stop offset="1" stop-color="#428B57"/>
</linearGradient>
<linearGradient id="paint24_linear_372_1949" x1="54.4688" y1="58.9538" x2="46.8191" y2="58.8358" gradientUnits="userSpaceOnUse">
<stop stop-color="#03A242"/>
<stop offset="1" stop-color="#428B57"/>
</linearGradient>
<linearGradient id="paint25_linear_372_1949" x1="36.3775" y1="51.8231" x2="29.4628" y2="51.752" gradientUnits="userSpaceOnUse">
<stop stop-color="#03A242"/>
<stop offset="1" stop-color="#428B57"/>
</linearGradient>
<linearGradient id="paint26_linear_372_1949" x1="51.0707" y1="66.513" x2="44.1465" y2="66.4418" gradientUnits="userSpaceOnUse">
<stop stop-color="#03A242"/>
<stop offset="1" stop-color="#428B57"/>
</linearGradient>
<linearGradient id="paint27_linear_372_1949" x1="36.3777" y1="66.5003" x2="29.4738" y2="66.4293" gradientUnits="userSpaceOnUse">
<stop stop-color="#03A242"/>
<stop offset="1" stop-color="#428B57"/>
</linearGradient>
<linearGradient id="paint28_linear_372_1949" x1="51.0505" y1="51.8277" x2="44.1467" y2="51.7567" gradientUnits="userSpaceOnUse">
<stop stop-color="#03A242"/>
<stop offset="1" stop-color="#428B57"/>
</linearGradient>
<linearGradient id="paint29_linear_372_1949" x1="42.7969" y1="58.6296" x2="37.6965" y2="58.5771" gradientUnits="userSpaceOnUse">
<stop stop-color="#03A242"/>
<stop offset="1" stop-color="#428B57"/>
</linearGradient>
</defs>
</svg>
