<svg width="196" height="200" viewBox="0 0 196 200" fill="none" xmlns="http://www.w3.org/2000/svg">
<path d="M127.387 34.5618C126.869 31.8019 125.758 27.5666 123.71 26.1325C120.607 23.9504 117.453 28.6293 113.699 29.2277C109.945 29.8261 115.886 17.6826 109.319 15.4953C102.752 13.3081 100.869 21.4278 98.6767 25.173C96.4842 28.9182 93.3608 23.6254 90.5426 24.5488C87.7244 25.4722 89.2912 30.4761 86.4781 31.1003C83.6651 31.7245 78.9697 27.9793 76.7772 30.1666C74.7087 32.23 74.5898 32.6324 71.6061 34.536L127.387 34.5618Z" fill="url(#paint0_linear_38_2612)"/>
<path d="M41.7532 108.098C41.4119 106.293 40.688 103.517 39.3435 102.579C37.275 101.15 35.248 104.214 32.7865 104.642C30.3251 105.07 34.2189 97.0743 29.9166 95.6454C25.6142 94.2164 24.3835 99.5298 22.9511 101.98C21.5187 104.431 19.4658 100.948 17.6197 101.573C15.7737 102.197 16.8027 105.457 14.9566 105.865C13.1105 106.272 10.0389 103.801 8.60136 105.256C7.24136 106.613 7.16897 106.865 5.23499 108.114L41.7532 108.098Z" fill="url(#paint1_linear_38_2612)"/>
<path d="M192.02 91.8848C190.986 86.3238 188.726 77.7707 184.6 74.8612C178.286 70.4557 171.977 79.8961 164.432 81.1548C156.888 82.4135 168.848 57.8686 155.6 53.4631C142.352 49.0576 138.561 65.4209 134.145 72.9731C129.729 80.5254 123.405 69.8521 117.717 71.7402C112.029 73.6283 115.193 83.7032 109.515 84.9619C103.838 86.2206 94.3641 78.6631 89.948 83.0532C85.7543 87.2368 85.5319 88.021 79.5748 91.8642L192.02 91.8848Z" fill="url(#paint2_linear_38_2612)"/>
<path opacity="0.4" d="M127.387 34.5618C126.869 31.8019 125.758 27.5666 123.71 26.1325C120.607 23.9504 117.453 28.6293 113.699 29.2277C109.945 29.8261 115.886 17.6826 109.319 15.4953C102.752 13.3081 100.869 21.4278 98.6767 25.173C96.4842 28.9182 93.3608 23.6254 90.5426 24.5488C87.7244 25.4722 89.2912 30.4761 86.4781 31.1003C83.6651 31.7245 78.9697 27.9793 76.7772 30.1666C74.7087 32.23 74.5898 32.6324 71.6061 34.536L127.387 34.5618Z" fill="white"/>
<path opacity="0.4" d="M41.7532 108.098C41.4119 106.293 40.688 103.517 39.3435 102.579C37.275 101.15 35.248 104.214 32.7865 104.642C30.3251 105.07 34.2189 97.0743 29.9166 95.6454C25.6142 94.2164 24.3835 99.5298 22.9511 101.98C21.5187 104.431 19.4658 100.948 17.6197 101.573C15.7737 102.197 16.8027 105.457 14.9566 105.865C13.1105 106.272 10.0389 103.801 8.60136 105.256C7.24136 106.613 7.16897 106.865 5.23499 108.114L41.7532 108.098Z" fill="white"/>
<path opacity="0.4" d="M192.02 91.8848C190.986 86.3238 188.726 77.7707 184.6 74.8612C178.286 70.4557 171.977 79.8961 164.432 81.1548C156.888 82.4135 168.848 57.8686 155.6 53.4631C142.352 49.0576 138.561 65.4209 134.145 72.9731C129.729 80.5254 123.405 69.8521 117.717 71.7402C112.029 73.6283 115.193 83.7032 109.515 84.9619C103.838 86.2206 94.3641 78.6631 89.948 83.0532C85.7543 87.2368 85.5319 88.021 79.5748 91.8642L192.02 91.8848Z" fill="white"/>
<path d="M157.787 170.518C157.787 170.518 164.82 171.215 168.388 175.563C169.669 174.015 171.278 172.768 173.099 171.915C174.92 171.061 176.909 170.621 178.922 170.627C180.574 168.637 181.626 166.22 181.954 163.657C182.283 161.094 181.875 158.49 180.779 156.149C179.682 153.809 177.941 151.827 175.759 150.435C173.577 149.043 171.043 148.297 168.453 148.286C165.863 148.275 163.323 148.997 161.128 150.37C158.934 151.743 157.176 153.71 156.058 156.041C154.941 158.372 154.51 160.972 154.816 163.537C155.122 166.103 156.153 168.529 157.787 170.534V170.518Z" fill="url(#paint3_linear_38_2612)"/>
<path opacity="0.3" d="M157.787 170.518C157.787 170.518 164.82 171.215 168.388 175.563C169.669 174.015 171.278 172.768 173.099 171.915C174.92 171.061 176.909 170.621 178.922 170.627C180.574 168.637 181.626 166.22 181.954 163.657C182.283 161.094 181.875 158.49 180.779 156.149C179.682 153.809 177.941 151.827 175.759 150.435C173.577 149.043 171.043 148.297 168.453 148.286C165.863 148.275 163.323 148.997 161.128 150.37C158.934 151.743 157.176 153.71 156.058 156.041C154.941 158.372 154.51 160.972 154.816 163.537C155.122 166.103 156.153 168.529 157.787 170.534V170.518Z" fill="white"/>
<path d="M168.156 149.244L167.918 184.426H169.107L168.156 149.244Z" fill="black"/>
<path d="M168.512 174.237C168.512 174.237 170.886 169.976 175.163 168.671C175.163 168.671 170.648 169.739 168.394 173.407L168.512 174.237Z" fill="black"/>
<path d="M168.512 162.156C168.512 162.156 170.886 157.895 175.163 156.59C175.163 156.59 170.648 157.658 168.394 161.326L168.512 162.156Z" fill="black"/>
<path d="M168.512 168.197C168.512 168.197 170.886 163.936 175.163 162.631C175.163 162.631 170.648 163.699 168.394 167.366L168.512 168.197Z" fill="black"/>
<path d="M168.16 165.236C168.16 165.236 165.87 160.975 161.743 159.67C161.743 159.67 166.097 160.737 168.274 164.405L168.16 165.236Z" fill="black"/>
<path d="M168.16 171.158C168.16 171.158 165.87 166.897 161.743 165.592C161.743 165.592 166.097 166.66 168.274 170.327L168.16 171.158Z" fill="black"/>
<path d="M131.647 162.455C131.647 162.455 141.064 163.389 145.842 169.213C145.842 169.213 150.884 162.465 159.943 162.6C162.157 159.935 163.567 156.698 164.008 153.266C164.449 149.833 163.904 146.346 162.435 143.21C160.967 140.075 158.636 137.42 155.714 135.555C152.792 133.69 149.398 132.692 145.929 132.676C142.46 132.66 139.058 133.628 136.119 135.466C133.18 137.304 130.825 139.938 129.328 143.06C127.831 146.182 127.253 149.663 127.663 153.1C128.073 156.536 129.453 159.786 131.642 162.471L131.647 162.455Z" fill="url(#paint4_linear_38_2612)"/>
<path opacity="0.5" d="M131.647 162.455C131.647 162.455 141.064 163.389 145.842 169.213C145.842 169.213 150.884 162.465 159.943 162.6C162.157 159.935 163.567 156.698 164.008 153.266C164.449 149.833 163.904 146.346 162.435 143.21C160.967 140.075 158.636 137.42 155.714 135.555C152.792 133.69 149.398 132.692 145.929 132.676C142.46 132.66 139.058 133.628 136.119 135.466C133.18 137.304 130.825 139.938 129.328 143.06C127.831 146.182 127.253 149.663 127.663 153.1C128.073 156.536 129.453 159.786 131.642 162.471L131.647 162.455Z" fill="white"/>
<path d="M145.526 133.969L145.211 181.078H146.797L145.526 133.969Z" fill="black"/>
<path d="M146.007 167.438C146.007 167.438 149.188 161.728 154.912 159.984C154.912 159.984 148.867 161.408 145.847 166.324L146.007 167.438Z" fill="black"/>
<path d="M146.007 151.256C146.007 151.256 149.188 145.545 154.912 143.802C154.912 143.802 148.867 145.23 145.847 150.147L146.007 151.256Z" fill="black"/>
<path d="M146.007 159.35C146.007 159.35 149.188 153.639 154.912 151.89C154.912 151.89 148.867 153.319 145.847 158.235L146.007 159.35Z" fill="black"/>
<path d="M145.537 155.383C145.537 155.383 142.465 149.672 136.942 147.928C136.942 147.928 142.77 149.352 145.687 154.274L145.537 155.383Z" fill="black"/>
<path d="M145.537 163.312C145.537 163.312 142.465 157.601 136.942 155.857C136.942 155.857 142.77 157.286 145.687 162.202L145.537 163.312Z" fill="black"/>
<path d="M49.4116 162.208C49.4116 162.208 59.0557 163.157 63.9424 169.12C63.9424 169.12 69.1134 162.213 78.38 162.357C80.6489 159.63 82.0943 156.317 82.548 152.802C83.0016 149.287 82.4448 145.716 80.9424 142.505C79.44 139.293 77.0539 136.574 74.062 134.664C71.0701 132.753 67.5956 131.73 64.0433 131.714C60.491 131.697 57.0071 132.688 53.9976 134.571C50.988 136.453 48.5767 139.151 47.0445 142.348C45.5122 145.545 44.9222 149.111 45.3431 152.629C45.7641 156.148 47.1786 159.475 49.4219 162.223L49.4116 162.208Z" fill="url(#paint5_linear_38_2612)"/>
<path opacity="0.3" d="M49.4116 162.208C49.4116 162.208 59.0557 163.157 63.9424 169.12C63.9424 169.12 69.1134 162.213 78.38 162.357C80.6489 159.63 82.0943 156.317 82.548 152.802C83.0016 149.287 82.4448 145.716 80.9424 142.505C79.44 139.293 77.0539 136.574 74.062 134.664C71.0701 132.753 67.5956 131.73 64.0433 131.714C60.491 131.697 57.0071 132.688 53.9976 134.571C50.988 136.453 48.5767 139.151 47.0445 142.348C45.5122 145.545 44.9222 149.111 45.3431 152.629C45.7641 156.148 47.1786 159.475 49.4219 162.223L49.4116 162.208Z" fill="white"/>
<path d="M63.6215 133.046L63.2959 181.269H64.9238L63.6215 133.046Z" fill="black"/>
<path d="M64.1133 167.304C64.1133 167.304 67.3659 161.465 73.2454 159.675C73.2454 159.675 67.0401 161.134 63.9685 166.169L64.1133 167.304Z" fill="black"/>
<path d="M64.1135 150.745C64.1135 150.745 67.3661 144.9 73.2249 143.115C73.2249 143.115 67.0196 144.575 63.948 149.605L64.1135 150.745Z" fill="black"/>
<path d="M64.1135 159.025C64.1135 159.025 67.3661 153.18 73.2249 151.395C73.2249 151.395 67.0196 152.855 63.948 157.89L64.1135 159.025Z" fill="black"/>
<path d="M63.6264 154.965C63.6264 154.965 60.4876 149.12 54.8356 147.335C54.8356 147.335 60.803 148.795 63.7867 153.83L63.6264 154.965Z" fill="black"/>
<path d="M63.6264 163.085C63.6264 163.085 60.4876 157.24 54.8356 155.45C54.8356 155.45 60.803 156.915 63.7867 161.945L63.6264 163.085Z" fill="black"/>
<path d="M16.715 171.669C16.715 171.669 24.1976 172.406 27.9931 177.034C27.9931 177.034 32.0007 171.674 39.1937 171.782C40.9531 169.666 42.0736 167.094 42.4246 164.367C42.7757 161.64 42.3429 158.869 41.1766 156.378C40.0104 153.887 38.1587 151.778 35.8372 150.296C33.5156 148.814 30.8199 148.02 28.0638 148.007C25.3077 147.995 22.6047 148.764 20.2696 150.224C17.9345 151.685 16.0634 153.777 14.8742 156.257C13.6851 158.738 13.2267 161.504 13.5526 164.234C13.8785 166.965 14.9752 169.546 16.715 171.679V171.669Z" fill="url(#paint6_linear_38_2612)"/>
<path opacity="0.5" d="M16.715 171.669C16.715 171.669 24.1976 172.406 27.9931 177.034C27.9931 177.034 32.0007 171.674 39.1937 171.782C40.9531 169.666 42.0736 167.094 42.4246 164.367C42.7757 161.64 42.3429 158.869 41.1766 156.378C40.0104 153.887 38.1587 151.778 35.8372 150.296C33.5156 148.814 30.8199 148.02 28.0638 148.007C25.3077 147.995 22.6047 148.764 20.2696 150.224C17.9345 151.685 16.0634 153.777 14.8742 156.257C13.6851 158.738 13.2267 161.504 13.5526 164.234C13.8785 166.965 14.9752 169.546 16.715 171.679V171.669Z" fill="white"/>
<path d="M27.7444 149.038L27.4912 186.459H28.7522L27.7444 149.038Z" fill="black"/>
<path d="M28.1225 175.62C28.1225 175.62 30.6512 171.086 35.1966 169.698C35.1966 169.698 30.3978 170.833 27.9984 174.738L28.1225 175.62Z" fill="black"/>
<path d="M28.1225 162.77C28.1225 162.77 30.6512 158.235 35.1966 156.848C35.1966 156.848 30.3978 157.983 27.9984 161.888L28.1225 162.77Z" fill="black"/>
<path d="M28.1225 169.203C28.1225 169.203 30.6512 164.663 35.1966 163.281C35.1966 163.281 30.3978 164.416 27.9984 168.321L28.1225 169.203Z" fill="black"/>
<path d="M27.7394 166.046C27.7394 166.046 25.2987 161.511 20.9136 160.124C20.9136 160.124 25.5676 161.258 27.8583 165.164L27.7394 166.046Z" fill="black"/>
<path d="M27.7394 172.344C27.7394 172.344 25.2987 167.81 20.9136 166.422C20.9136 166.422 25.5676 167.557 27.8583 171.462L27.7394 172.344Z" fill="black"/>
<path d="M186.492 182.249L183.555 181.733C183.307 181.599 183.043 181.47 182.764 181.346L185.101 179.015L178.156 179.479L177.458 178.323L175.607 178.782L174.681 176.471L172.132 177.4L171.439 174.165L169.122 175.321L166.806 173.469L166.102 174.877L164.251 174.413L163.615 175.362L163.026 175.213L162.188 173.469L159.344 174.305L157.793 173.959L157.312 173.237H154.328L153.811 173.139L153.588 171.158L149.886 171.39L148.035 169.327L146.411 171.173L145.491 170.234L144.332 170.699L142.708 168.635C142.708 168.635 141.323 170.699 140.397 170.946C139.471 171.194 137.848 169.327 137.848 169.327L136.901 170.585L135.867 170.472L135.081 169.559L133.7 170.234L133.142 170.183L132.754 168.635L129.972 169.559L128.121 167.939L127.035 169.672L126.28 169.621L125.111 169.327L122.562 168.635L121.636 169.094L118.627 166.556V169.182H118.353L115.384 167.49L114.991 169.038H114.174L113.528 167.49L110.777 168.945H109.484L109.36 168.202L104.706 168.666L103.088 165.891L101.697 168.434L100.078 166.123L98.6612 168.945H97.1098L96.1273 168.181L95.8998 168.971L94.6019 169.007L92.8954 167.696L92.6627 168.847L90.827 168.171L89.0068 169.203H88.6551L87.8174 167.949L85.0354 168.873L84.2235 169.414L82.7808 169.492L82.4912 168.181L79.2644 169.729L77.6666 169.832C77.1236 169.285 76.1721 168.434 75.5413 168.434C75.2498 168.457 74.969 168.554 74.7255 168.716C74.4821 168.877 74.2841 169.098 74.1502 169.357L73.2453 168.62L72.1852 170.204L71.4923 170.265L70.7011 169.311L68.3845 170.467L67.4588 168.403L64.9095 170.467L64.4441 168.847L61.8689 170.467L60.2452 168.62L58.5801 171.524L58.063 171.581L56.5117 170.234L55.1672 171.911L54.2467 172.025L53.0367 170.477L52.5713 171.632L50.5028 170.477L49.3445 172.54L47.0279 171.617L44.4165 173.33L41.2569 173.778L39.8814 172.793L38.7231 173.484L37.0994 172.793L36.6392 174.181L35.0154 173.717L33.7951 174.934L33.5727 174.97L32.9108 173.469L30.6148 174.877L29.229 173.03L27.3726 175.342L24.363 175.569L21.5861 175.801L19.5177 176.724L17.5061 177.864L16.0427 177.647L14.7189 178.488L14.5793 178.524L13.028 178.081L11.8697 178.772L9.80123 178.545L9.48062 180.129C8.96351 180.314 8.48777 180.505 8.00169 180.707C7.54146 180.66 7.0709 180.624 6.78649 180.624C6.50208 180.624 6.12459 181.14 5.75227 181.743C2.37555 183.487 0.307115 185.669 2.9754 188.011C6.48139 191.106 15.386 189.745 19.4918 189.471C37.0735 188.305 50.3477 184.627 57.1735 185.226C63.9994 185.824 36.8977 199.995 66.2074 200C95.5172 200.005 155.667 196.616 164.458 195.79C173.249 194.965 155.734 191.746 158.253 187.887C160.771 184.029 181.218 187.299 184.656 186.381C186.937 185.772 186.208 184.251 185.473 183.286L186.492 182.249Z" fill="url(#paint7_linear_38_2612)"/>
<path opacity="0.4" d="M186.492 182.249L183.555 181.733C183.307 181.599 183.043 181.47 182.764 181.346L185.101 179.015L178.156 179.479L177.458 178.323L175.607 178.782L174.681 176.471L172.132 177.4L171.439 174.165L169.122 175.321L166.806 173.469L166.102 174.877L164.251 174.413L163.615 175.362L163.026 175.213L162.188 173.469L159.344 174.305L157.793 173.959L157.312 173.237H154.328L153.811 173.139L153.588 171.158L149.886 171.39L148.035 169.327L146.411 171.173L145.491 170.234L144.332 170.699L142.708 168.635C142.708 168.635 141.323 170.699 140.397 170.946C139.471 171.194 137.848 169.327 137.848 169.327L136.901 170.585L135.867 170.472L135.081 169.559L133.7 170.234L133.142 170.183L132.754 168.635L129.972 169.559L128.121 167.939L127.035 169.672L126.28 169.621L125.111 169.327L122.562 168.635L121.636 169.094L118.627 166.556V169.182H118.353L115.384 167.49L114.991 169.038H114.174L113.528 167.49L110.777 168.945H109.484L109.36 168.202L104.706 168.666L103.088 165.891L101.697 168.434L100.078 166.123L98.6612 168.945H97.1098L96.1273 168.181L95.8998 168.971L94.6019 169.007L92.8954 167.696L92.6627 168.847L90.827 168.171L89.0068 169.203H88.6551L87.8174 167.949L85.0354 168.873L84.2235 169.414L82.7808 169.492L82.4912 168.181L79.2644 169.729L77.6666 169.832C77.1236 169.285 76.1721 168.434 75.5413 168.434C75.2498 168.457 74.969 168.554 74.7255 168.716C74.4821 168.877 74.2841 169.098 74.1502 169.357L73.2453 168.62L72.1852 170.204L71.4923 170.265L70.7011 169.311L68.3845 170.467L67.4588 168.403L64.9095 170.467L64.4441 168.847L61.8689 170.467L60.2452 168.62L58.5801 171.524L58.063 171.581L56.5117 170.234L55.1672 171.911L54.2467 172.025L53.0367 170.477L52.5713 171.632L50.5028 170.477L49.3445 172.54L47.0279 171.617L44.4165 173.33L41.2569 173.778L39.8814 172.793L38.7231 173.484L37.0994 172.793L36.6392 174.181L35.0154 173.717L33.7951 174.934L33.5727 174.97L32.9108 173.469L30.6148 174.877L29.229 173.03L27.3726 175.342L24.363 175.569L21.5861 175.801L19.5177 176.724L17.5061 177.864L16.0427 177.647L14.7189 178.488L14.5793 178.524L13.028 178.081L11.8697 178.772L9.80123 178.545L9.48062 180.129C8.96351 180.314 8.48777 180.505 8.00169 180.707C7.54146 180.66 7.0709 180.624 6.78649 180.624C6.50208 180.624 6.12459 181.14 5.75227 181.743C2.37555 183.487 0.307115 185.669 2.9754 188.011C6.48139 191.106 15.386 189.745 19.4918 189.471C37.0735 188.305 50.3477 184.627 57.1735 185.226C63.9994 185.824 36.8977 199.995 66.2074 200C95.5172 200.005 155.667 196.616 164.458 195.79C173.249 194.965 155.734 191.746 158.253 187.887C160.771 184.029 181.218 187.299 184.656 186.381C186.937 185.772 186.208 184.251 185.473 183.286L186.492 182.249Z" fill="white"/>
<path d="M113.865 112.282C113.865 112.282 112.37 116.182 111.222 118.473C110.074 120.763 108.12 130.523 107.654 135.341C107.189 140.16 106.506 146.242 106.506 146.242C106.506 146.242 103.859 151.06 102.597 152.896C101.335 154.733 99.4944 155.764 100.529 157.023C101.563 158.282 104.097 156.564 105.938 155.532C107.779 154.501 108.006 152.664 109.04 152.205C110.074 151.746 112.262 152.086 111.915 149.11C111.569 146.133 109.961 144.637 110.307 143.832C110.654 143.028 113.063 135.114 114.098 133.051C115.132 130.987 117.433 128.573 118.353 125.364C118.931 123.077 119.202 120.723 119.16 118.364C119.16 118.364 121.342 114.005 121.689 113.773C122.035 113.541 115.132 113.2 113.865 112.282Z" fill="white"/>
<mask id="mask0_38_2612" style="mask-type:luminance" maskUnits="userSpaceOnUse" x="100" y="112" width="22" height="46">
<path d="M113.865 112.282C113.865 112.282 112.37 116.182 111.222 118.473C110.074 120.763 108.12 130.523 107.654 135.341C107.189 140.16 106.506 146.242 106.506 146.242C106.506 146.242 103.859 151.06 102.597 152.896C101.335 154.733 99.4944 155.764 100.529 157.023C101.563 158.282 104.097 156.564 105.938 155.532C107.779 154.501 108.006 152.664 109.04 152.205C110.074 151.746 112.262 152.086 111.915 149.11C111.569 146.133 109.961 144.637 110.307 143.832C110.654 143.028 113.063 135.114 114.098 133.051C115.132 130.987 117.433 128.573 118.353 125.364C118.931 123.077 119.202 120.723 119.16 118.364C119.16 118.364 121.342 114.005 121.689 113.773C122.035 113.541 115.132 113.2 113.865 112.282Z" fill="white"/>
</mask>
<g mask="url(#mask0_38_2612)">
<path d="M113.865 112.282C113.865 112.282 112.37 116.182 111.222 118.473C110.074 120.763 108.12 130.523 107.654 135.341C107.189 140.16 106.506 146.242 106.506 146.242C106.506 146.242 103.859 151.06 102.597 152.896C101.335 154.733 99.4944 155.764 100.529 157.023C101.563 158.282 104.097 156.564 105.938 155.532C107.779 154.501 108.006 152.664 109.04 152.205C110.074 151.746 112.262 152.086 111.915 149.11C111.569 146.133 109.961 144.637 110.307 143.832C110.654 143.028 113.063 135.114 114.098 133.051C115.132 130.987 117.433 128.573 118.353 125.364C118.931 123.077 119.202 120.723 119.16 118.364C119.16 118.364 121.342 114.005 121.689 113.773C122.035 113.541 115.132 113.2 113.865 112.282Z" fill="#E4E7EB" stroke="black" stroke-linecap="round" stroke-linejoin="round"/>
<path opacity="0.25" d="M112.215 116.321C113.218 116.837 115.141 117.786 116.32 117.786H117.97C117.97 117.786 119.252 120.711 117.055 125.648C114.857 130.585 111.005 136.43 110.089 140.268C109.572 142.409 108.217 149.084 107.111 154.578C107.948 153.618 108.279 152.551 109.034 152.215C110.069 151.756 112.256 152.097 111.909 149.12C111.563 146.144 109.955 144.648 110.301 143.843C110.648 143.038 113.063 135.114 114.097 133.051C115.131 130.987 117.432 128.573 118.353 125.364C118.93 123.077 119.201 120.723 119.159 118.364C119.159 118.364 121.342 114.005 121.688 113.773C122.034 113.541 115.131 113.2 113.864 112.282C113.864 112.282 113.063 114.325 112.215 116.321Z" fill="#1F3D76"/>
</g>
<path d="M113.865 112.282C113.865 112.282 112.37 116.182 111.222 118.473C110.074 120.763 108.12 130.523 107.654 135.341C107.189 140.16 106.506 146.242 106.506 146.242C106.506 146.242 103.859 151.06 102.597 152.896C101.335 154.733 99.4944 155.764 100.529 157.023C101.563 158.282 104.097 156.564 105.938 155.532C107.779 154.501 108.006 152.664 109.04 152.205C110.074 151.746 112.262 152.086 111.915 149.11C111.569 146.133 109.961 144.637 110.307 143.832C110.654 143.028 113.063 135.114 114.098 133.051C115.132 130.987 117.433 128.573 118.353 125.364C118.931 123.077 119.202 120.723 119.16 118.364C119.16 118.364 121.342 114.005 121.689 113.773C122.035 113.541 115.132 113.2 113.865 112.282Z" stroke="black" stroke-linecap="round" stroke-linejoin="round"/>
<path d="M100.522 157.034C101.557 158.297 104.091 156.574 105.931 155.543C107.772 154.511 108 152.675 109.034 152.215C110.068 151.756 112.256 152.097 111.909 149.12C111.604 146.469 110.301 144.993 110.254 144.137C110.015 144.98 109.507 145.723 108.807 146.252C107.312 147.516 106.505 146.252 106.505 146.252C106.505 146.252 103.858 151.07 102.596 152.907C101.334 154.743 99.4883 155.79 100.522 157.034Z" fill="black" stroke="black" stroke-linecap="round" stroke-linejoin="round"/>
<path d="M111.915 149.146C111.356 149.635 110.736 150.05 110.069 150.379C108.114 151.297 107.654 153.015 104.898 155.197C104.269 155.748 103.525 156.151 102.719 156.376C101.914 156.601 101.068 156.642 100.244 156.497C100.296 156.687 100.389 156.863 100.518 157.013C101.552 158.277 104.086 156.554 105.927 155.522C107.768 154.49 107.995 152.654 109.03 152.195C110.064 151.736 112.236 152.092 111.915 149.146Z" fill="white" stroke="black" stroke-linecap="round" stroke-linejoin="round"/>
<path d="M143.542 112.855L146.189 116.873C146.189 116.873 147.337 122.151 149.064 125.592C150.791 129.032 155.047 134.877 157.116 137.41C159.184 139.943 159.877 144.869 159.877 144.869C159.877 144.869 158.843 147.052 159.53 148.656C160.218 150.26 162.178 151.411 162.525 152.902C162.871 154.392 164.939 157.952 166.548 157.72C168.156 157.488 169.195 155.429 167.928 152.442C166.661 149.456 164.247 147.165 163.559 144.065C162.871 140.964 160.684 128.114 158.843 124.101C157.798 121.787 156.567 119.561 155.161 117.446L153.434 110.559C153.434 110.559 146.996 114.005 143.542 112.855Z" fill="white"/>
<mask id="mask1_38_2612" style="mask-type:luminance" maskUnits="userSpaceOnUse" x="143" y="110" width="26" height="48">
<path d="M143.542 112.855L146.189 116.873C146.189 116.873 147.337 122.151 149.064 125.592C150.791 129.032 155.047 134.877 157.116 137.41C159.184 139.943 159.877 144.869 159.877 144.869C159.877 144.869 158.843 147.052 159.53 148.656C160.218 150.26 162.178 151.411 162.525 152.902C162.871 154.392 164.939 157.952 166.548 157.72C168.156 157.488 169.195 155.429 167.928 152.442C166.661 149.456 164.247 147.165 163.559 144.065C162.871 140.964 160.684 128.114 158.843 124.101C157.798 121.787 156.567 119.561 155.161 117.446L153.434 110.559C153.434 110.559 146.996 114.005 143.542 112.855Z" fill="white"/>
</mask>
<g mask="url(#mask1_38_2612)">
<path d="M143.542 112.855L146.189 116.873C146.189 116.873 147.337 122.151 149.064 125.592C150.791 129.032 155.047 134.877 157.116 137.41C159.184 139.943 159.877 144.869 159.877 144.869C159.877 144.869 158.843 147.052 159.53 148.656C160.218 150.26 162.178 151.411 162.525 152.902C162.871 154.392 164.939 157.952 166.548 157.72C168.156 157.488 169.195 155.429 167.928 152.442C166.661 149.456 164.247 147.165 163.559 144.065C162.871 140.964 160.684 128.114 158.843 124.101C157.798 121.787 156.567 119.561 155.161 117.446L153.434 110.559C153.434 110.559 146.996 114.005 143.542 112.855Z" fill="#E4E7EB" stroke="black" stroke-linecap="round" stroke-linejoin="round"/>
<path opacity="0.25" d="M158.843 124.101C157.798 121.787 156.567 119.561 155.161 117.446L153.434 110.559C153.434 110.559 146.996 114.005 143.542 112.855L146.174 116.848C146.623 116.848 147.12 116.873 147.653 116.873C149.102 116.836 150.532 116.526 151.867 115.96C151.867 115.96 156.262 122.904 158.46 128.754C159.986 132.814 161.956 138.978 163.259 142.62C162.364 138.106 160.466 127.65 158.843 124.101Z" fill="#1F3D76"/>
</g>
<path d="M143.542 112.855L146.189 116.873C146.189 116.873 147.337 122.151 149.064 125.592C150.791 129.032 155.047 134.877 157.116 137.41C159.184 139.943 159.877 144.869 159.877 144.869C159.877 144.869 158.843 147.052 159.53 148.656C160.218 150.26 162.178 151.411 162.525 152.902C162.871 154.392 164.939 157.952 166.548 157.72C168.156 157.488 169.195 155.429 167.928 152.442C166.661 149.456 164.247 147.165 163.559 144.065C162.871 140.964 160.684 128.114 158.843 124.101C157.798 121.787 156.567 119.561 155.161 117.446L153.434 110.559C153.434 110.559 146.996 114.005 143.542 112.855Z" stroke="black" stroke-linecap="round" stroke-linejoin="round"/>
<path d="M167.927 152.442C166.836 149.863 164.892 147.8 163.935 145.308C163.768 145.799 163.48 146.241 163.098 146.593C161.831 147.624 159.876 144.87 159.876 144.87C159.876 144.87 158.842 147.052 159.53 148.656C160.217 150.26 162.177 151.411 162.524 152.902C162.87 154.392 164.939 157.952 166.547 157.72C168.155 157.488 169.194 155.429 167.927 152.442Z" fill="black" stroke="black" stroke-linecap="round" stroke-linejoin="round"/>
<path d="M162.524 152.901C162.669 153.44 162.878 153.959 163.145 154.449C163.082 154.319 163.029 154.184 162.984 154.047C162.405 152.21 162.064 149.92 160.797 148.764C160.178 148.156 159.687 147.429 159.354 146.628C159.227 147.306 159.287 148.005 159.53 148.651C160.223 150.265 162.188 151.411 162.524 152.901Z" fill="white" stroke="black" stroke-linecap="round" stroke-linejoin="round"/>
<path d="M168.393 153.918C168.253 154.882 167.969 155.981 167.358 156.574C166.288 157.642 164.313 156.409 163.382 154.888C164.214 156.363 165.486 157.874 166.552 157.72C167.876 157.534 168.811 156.09 168.393 153.918Z" fill="white" stroke="black" stroke-linecap="round" stroke-linejoin="round"/>
<path d="M148.029 76.8267C148.029 76.8267 148.257 77.0537 147.223 77.7398C146.189 78.4259 143.66 79.0036 144.234 79.9219C144.808 80.8401 145.382 81.2993 144.922 81.6449C144.461 81.9905 143.774 81.9905 143.2 82.4445C142.626 82.8984 140.899 77.3993 140.899 77.3993C140.899 77.3993 145.154 75.3152 148.029 76.8267Z" fill="white"/>
<mask id="mask2_38_2612" style="mask-type:luminance" maskUnits="userSpaceOnUse" x="140" y="76" width="9" height="7">
<path d="M148.029 76.8267C148.029 76.8267 148.257 77.0537 147.223 77.7398C146.189 78.4259 143.66 79.0036 144.234 79.9219C144.808 80.8401 145.382 81.2993 144.922 81.6449C144.461 81.9905 143.774 81.9905 143.2 82.4445C142.626 82.8984 140.899 77.3993 140.899 77.3993C140.899 77.3993 145.154 75.3152 148.029 76.8267Z" fill="white"/>
</mask>
<g mask="url(#mask2_38_2612)">
<path d="M148.029 76.8267C148.029 76.8267 148.257 77.0537 147.223 77.7398C146.189 78.4259 143.66 79.0036 144.234 79.9219C144.808 80.8401 145.382 81.2993 144.922 81.6449C144.461 81.9905 143.774 81.9905 143.2 82.4445C142.626 82.8984 140.899 77.3993 140.899 77.3993C140.899 77.3993 145.154 75.3152 148.029 76.8267Z" fill="url(#paint8_linear_38_2612)"/>
<path opacity="0.25" d="M148.029 76.8267C148.029 76.8267 148.257 77.0537 147.223 77.7398C146.189 78.4259 143.66 79.0036 144.234 79.9219C144.808 80.8401 145.382 81.2993 144.922 81.6449C144.461 81.9905 143.774 81.9905 143.2 82.4445C142.626 82.8984 140.899 77.3993 140.899 77.3993C140.899 77.3993 145.154 75.3152 148.029 76.8267Z" fill="#1F3D76"/>
</g>
<path d="M148.029 76.8267C148.029 76.8267 148.257 77.0537 147.223 77.7398C146.189 78.4259 143.66 79.0036 144.234 79.9219C144.808 80.8401 145.382 81.2993 144.922 81.6449C144.461 81.9905 143.774 81.9905 143.2 82.4445C142.626 82.8984 140.899 77.3993 140.899 77.3993C140.899 77.3993 145.154 75.3152 148.029 76.8267Z" stroke="black" stroke-linecap="round" stroke-linejoin="round"/>
<path d="M121.688 80.6131L120.653 86.5765C120.653 86.5765 116.398 95.759 114.903 100.464C113.409 105.168 111.221 113.427 111.221 113.427C111.221 113.427 112.83 114.691 117.665 115.491C122.5 116.29 128.576 113.2 128.576 113.2C128.576 113.2 130.417 103.332 130.991 102.068C131.564 100.804 133.173 97.4768 133.173 97.4768H134.672L138.582 112.628C138.582 112.628 142.145 113.546 144.218 113.886C146.292 114.227 149.389 114.459 152.156 112.509C153.949 111.15 155.438 109.432 156.525 107.464C156.525 107.464 152.156 97.1466 150.196 92.8907C148.236 88.6348 143.758 81.4127 143.758 81.4127L142.377 76.708L121.688 80.6131Z" fill="#3A3A3A" stroke="#5F5F5F" stroke-linecap="round" stroke-linejoin="round"/>
<path d="M121.921 88.8722L126.75 93.4634" stroke="white" stroke-linecap="round" stroke-linejoin="round"/>
<path d="M127.79 94.9441L128.591 95.527" stroke="white" stroke-linecap="round" stroke-linejoin="round"/>
<path d="M122.035 90.7085L126.875 94.268" stroke="white" stroke-linecap="round" stroke-linejoin="round"/>
<path d="M126.125 112.973C126.813 112.719 127.484 112.419 128.132 112.076" stroke="white" stroke-linecap="round" stroke-linejoin="round"/>
<path d="M112.488 112.509C115.938 113.941 119.726 114.354 123.404 113.701" stroke="white" stroke-linecap="round" stroke-linejoin="round"/>
<path d="M139.058 111.477C139.058 111.477 146.996 116.528 155.605 106.886" stroke="white" stroke-linecap="round" stroke-linejoin="round"/>
<path d="M145.154 85.5449L142.853 89.904" stroke="white" stroke-linecap="round" stroke-linejoin="round"/>
<path d="M126.404 84.0539C130.676 84.4845 134.982 83.688 138.815 81.7583" stroke="white" stroke-linecap="round" stroke-linejoin="round"/>
<path d="M143.138 79.2564L142.393 76.708L121.709 80.6131L121.522 81.6758C124.906 82.662 128.467 82.8858 131.947 82.331C135.779 81.717 139.531 80.686 143.138 79.2564Z" fill="white"/>
<mask id="mask3_38_2612" style="mask-type:luminance" maskUnits="userSpaceOnUse" x="121" y="76" width="23" height="7">
<path d="M143.138 79.2564L142.393 76.708L121.709 80.6131L121.522 81.6758C124.906 82.662 128.467 82.8858 131.947 82.331C135.779 81.717 139.531 80.686 143.138 79.2564Z" fill="white"/>
</mask>
<g mask="url(#mask3_38_2612)">
<path d="M143.138 79.2564L142.393 76.708L121.709 80.6131L121.522 81.6758C124.906 82.662 128.467 82.8858 131.947 82.331C135.779 81.717 139.531 80.686 143.138 79.2564Z" fill="#999DA3" stroke="black" stroke-linecap="round" stroke-linejoin="round"/>
</g>
<path d="M143.138 79.2564L142.393 76.708L121.709 80.6131L121.522 81.6758C124.906 82.662 128.467 82.8858 131.947 82.331C135.779 81.717 139.531 80.686 143.138 79.2564Z" stroke="black" stroke-linecap="round" stroke-linejoin="round"/>
<path d="M154.503 35.1704C153.371 31.0794 151.872 27.0981 150.025 23.2745C148.624 20.298 147.233 16.5683 145.071 14.056C143.691 12.4516 141.157 11.1878 140.583 11.4199C140.009 11.6521 137.48 12.6786 137.48 14.056C137.48 15.4334 138.401 15.4334 138.401 15.4334C138.401 15.4334 138.168 17.1563 138.861 17.8425C139.554 18.5286 143.117 18.3016 143.117 18.3016C143.753 19.235 144.282 20.2369 144.694 21.2884C145.382 23.5789 145.992 24.038 146.452 28.1701C146.907 31.4579 147.56 34.7155 148.407 37.9251C147.963 38.1972 147.573 38.5467 147.254 38.9569C146.566 39.7616 142.196 44.1155 142.196 44.1155C140.932 44.7134 139.624 45.2119 138.282 45.6064C137.105 45.9717 135.965 46.4484 134.879 47.0302C134.171 46.9476 133.457 46.8703 133.074 46.8703C132.268 46.8703 126.636 47.902 126.636 47.902C125.335 47.1297 123.946 46.5133 122.5 46.0655C121.158 45.671 119.849 45.1726 118.585 44.5746C118.585 44.5746 114.216 40.2156 113.528 39.416C113.209 39.0058 112.818 38.6563 112.375 38.3843C113.221 35.1746 113.874 31.917 114.329 28.6292C114.702 25.2967 115.663 21.5103 117.67 18.7607C117.67 18.7607 121.233 18.9928 121.926 18.3016C122.619 17.6103 122.381 15.8925 122.381 15.8925C122.381 15.8925 123.301 15.8925 123.301 14.5151C123.301 13.1378 120.772 12.106 120.198 11.879C119.624 11.6521 117.096 12.9108 115.71 14.5151C114.324 16.1195 114.448 17.729 113.068 20.0246C111.687 22.3202 106.862 33.4371 106.278 35.6295C105.694 37.822 105.016 39.0704 105.13 40.1072C105.244 41.1441 110.766 47.1024 112.147 48.7119C113.528 50.3214 118.818 55.8257 118.818 55.8257C118.818 55.8257 120.772 65.4621 121.346 68.9081C121.92 72.354 121.579 81.8718 121.579 81.8718C121.579 81.8718 127.903 80.4944 133.886 79.8083C139.869 79.1222 146.421 76.8266 147.228 76.8266H148.034C148.034 76.8266 143.546 71.3172 143.546 70.5124C143.546 69.8727 143.696 58.1832 143.753 53.4888C145.423 51.7349 147.786 49.2381 148.639 48.2425C150.02 46.633 155.543 40.6695 155.657 39.6378C155.77 38.6061 155.077 37.3525 154.503 35.1704Z" fill="white"/>
<mask id="mask4_38_2612" style="mask-type:luminance" maskUnits="userSpaceOnUse" x="105" y="11" width="51" height="71">
<path d="M154.503 35.1704C153.371 31.0794 151.872 27.0981 150.025 23.2745C148.624 20.298 147.233 16.5683 145.071 14.056C143.691 12.4516 141.157 11.1878 140.583 11.4199C140.009 11.6521 137.48 12.6786 137.48 14.056C137.48 15.4334 138.401 15.4334 138.401 15.4334C138.401 15.4334 138.168 17.1563 138.861 17.8425C139.554 18.5286 143.117 18.3016 143.117 18.3016C143.753 19.235 144.282 20.2369 144.694 21.2884C145.382 23.5789 145.992 24.038 146.452 28.1701C146.907 31.4579 147.56 34.7155 148.407 37.9251C147.963 38.1972 147.573 38.5467 147.254 38.9569C146.566 39.7616 142.196 44.1155 142.196 44.1155C140.932 44.7134 139.624 45.2119 138.282 45.6064C137.105 45.9717 135.965 46.4484 134.879 47.0302C134.171 46.9476 133.457 46.8703 133.074 46.8703C132.268 46.8703 126.636 47.902 126.636 47.902C125.335 47.1297 123.946 46.5133 122.5 46.0655C121.158 45.671 119.849 45.1726 118.585 44.5746C118.585 44.5746 114.216 40.2156 113.528 39.416C113.209 39.0058 112.818 38.6563 112.375 38.3843C113.221 35.1746 113.874 31.917 114.329 28.6292C114.702 25.2967 115.663 21.5103 117.67 18.7607C117.67 18.7607 121.233 18.9928 121.926 18.3016C122.619 17.6103 122.381 15.8925 122.381 15.8925C122.381 15.8925 123.301 15.8925 123.301 14.5151C123.301 13.1378 120.772 12.106 120.198 11.879C119.624 11.6521 117.096 12.9108 115.71 14.5151C114.324 16.1195 114.448 17.729 113.068 20.0246C111.687 22.3202 106.862 33.4371 106.278 35.6295C105.694 37.822 105.016 39.0704 105.13 40.1072C105.244 41.1441 110.766 47.1024 112.147 48.7119C113.528 50.3214 118.818 55.8257 118.818 55.8257C118.818 55.8257 120.772 65.4621 121.346 68.9081C121.92 72.354 121.579 81.8718 121.579 81.8718C121.579 81.8718 127.903 80.4944 133.886 79.8083C139.869 79.1222 146.421 76.8266 147.228 76.8266H148.034C148.034 76.8266 143.546 71.3172 143.546 70.5124C143.546 69.8727 143.696 58.1832 143.753 53.4888C145.423 51.7349 147.786 49.2381 148.639 48.2425C150.02 46.633 155.543 40.6695 155.657 39.6378C155.77 38.6061 155.077 37.3525 154.503 35.1704Z" fill="white"/>
</mask>
<g mask="url(#mask4_38_2612)">
<path d="M154.503 35.1704C153.371 31.0794 151.872 27.0981 150.025 23.2745C148.624 20.298 147.233 16.5683 145.071 14.056C143.691 12.4516 141.157 11.1878 140.583 11.4199C140.009 11.6521 137.48 12.6786 137.48 14.056C137.48 15.4334 138.401 15.4334 138.401 15.4334C138.401 15.4334 138.168 17.1563 138.861 17.8425C139.554 18.5286 143.117 18.3016 143.117 18.3016C143.753 19.235 144.282 20.2369 144.694 21.2884C145.382 23.5789 145.992 24.038 146.452 28.1701C146.907 31.4579 147.56 34.7155 148.407 37.9251C147.963 38.1972 147.573 38.5467 147.254 38.9569C146.566 39.7616 142.196 44.1155 142.196 44.1155C140.932 44.7134 139.624 45.2119 138.282 45.6064C137.105 45.9717 135.965 46.4484 134.879 47.0302C134.171 46.9476 133.457 46.8703 133.074 46.8703C132.268 46.8703 126.636 47.902 126.636 47.902C125.335 47.1297 123.946 46.5133 122.5 46.0655C121.158 45.671 119.849 45.1726 118.585 44.5746C118.585 44.5746 114.216 40.2156 113.528 39.416C113.209 39.0058 112.818 38.6563 112.375 38.3843C113.221 35.1746 113.874 31.917 114.329 28.6292C114.702 25.2967 115.663 21.5103 117.67 18.7607C117.67 18.7607 121.233 18.9928 121.926 18.3016C122.619 17.6103 122.381 15.8925 122.381 15.8925C122.381 15.8925 123.301 15.8925 123.301 14.5151C123.301 13.1378 120.772 12.106 120.198 11.879C119.624 11.6521 117.096 12.9108 115.71 14.5151C114.324 16.1195 114.448 17.729 113.068 20.0246C111.687 22.3202 106.862 33.4371 106.278 35.6295C105.694 37.822 105.016 39.0704 105.13 40.1072C105.244 41.1441 110.766 47.1024 112.147 48.7119C113.528 50.3214 118.818 55.8257 118.818 55.8257C118.818 55.8257 120.772 65.4621 121.346 68.9081C121.92 72.354 121.579 81.8718 121.579 81.8718C121.579 81.8718 127.903 80.4944 133.886 79.8083C139.869 79.1222 146.421 76.8266 147.228 76.8266H148.034C148.034 76.8266 143.546 71.3172 143.546 70.5124C143.546 69.8727 143.696 58.1832 143.753 53.4888C145.423 51.7349 147.786 49.2381 148.639 48.2425C150.02 46.633 155.543 40.6695 155.657 39.6378C155.77 38.6061 155.077 37.3525 154.503 35.1704Z" fill="#E4E7EB" stroke="black" stroke-linecap="round" stroke-linejoin="round"/>
<path opacity="0.25" d="M122.035 71.1883C121.688 69.5788 121.228 60.2829 120.654 57.3012C120.08 54.3195 118.699 53.1743 117.892 51.9104C117.086 50.6465 114.79 48.8152 111.91 45.72C109.029 42.6248 106.392 39.9887 106.857 37.6931C107.173 36.0991 110.275 27.123 112.137 21.8044C110.208 25.7508 106.759 33.8087 106.278 35.6297C105.704 37.8118 105.016 39.0705 105.13 40.1074C105.244 41.1443 110.767 47.1025 112.147 48.712C113.528 50.3215 118.818 55.8258 118.818 55.8258C118.818 55.8258 120.773 65.4622 121.347 68.9082C121.578 70.7527 121.687 72.6104 121.673 74.4692C121.962 72.999 122.148 71.7042 122.035 71.1883Z" fill="#1F3D76"/>
<path opacity="0.25" d="M153.915 39.0704C153.915 40.7934 145.517 46.9889 143.572 50.2028C141.628 53.4166 142.192 61.3352 142.192 64.5439C142.229 65.8467 142.191 67.1506 142.078 68.449L143.578 70.2648C143.578 68.4283 143.722 57.884 143.779 53.4992C145.449 51.7452 147.813 49.2484 148.666 48.2528C150.047 46.6433 155.569 40.6799 155.683 39.6482C155.797 38.6164 155.109 37.3526 154.535 35.1704C153.402 31.0794 151.904 27.0981 150.057 23.2746C148.656 20.298 147.264 16.5683 145.103 14.056C145.103 14.056 148.749 22.8928 150.936 28.7427C153.123 34.5927 153.915 37.3526 153.915 39.0704Z" fill="#1F3D76"/>
</g>
<path d="M154.503 35.1704C153.371 31.0794 151.872 27.0981 150.025 23.2745C148.624 20.298 147.233 16.5683 145.071 14.056C143.691 12.4516 141.157 11.1878 140.583 11.4199C140.009 11.6521 137.48 12.6786 137.48 14.056C137.48 15.4334 138.401 15.4334 138.401 15.4334C138.401 15.4334 138.168 17.1563 138.861 17.8425C139.554 18.5286 143.117 18.3016 143.117 18.3016C143.753 19.235 144.282 20.2369 144.694 21.2884C145.382 23.5789 145.992 24.038 146.452 28.1701C146.907 31.4579 147.56 34.7155 148.407 37.9251C147.963 38.1972 147.573 38.5467 147.254 38.9569C146.566 39.7616 142.196 44.1155 142.196 44.1155C140.932 44.7134 139.624 45.2119 138.282 45.6064C137.105 45.9717 135.965 46.4484 134.879 47.0302C134.171 46.9476 133.457 46.8703 133.074 46.8703C132.268 46.8703 126.636 47.902 126.636 47.902C125.335 47.1297 123.946 46.5133 122.5 46.0655C121.158 45.671 119.849 45.1726 118.585 44.5746C118.585 44.5746 114.216 40.2156 113.528 39.416C113.209 39.0058 112.818 38.6563 112.375 38.3843C113.221 35.1746 113.874 31.917 114.329 28.6292C114.702 25.2967 115.663 21.5103 117.67 18.7607C117.67 18.7607 121.233 18.9928 121.926 18.3016C122.619 17.6103 122.381 15.8925 122.381 15.8925C122.381 15.8925 123.301 15.8925 123.301 14.5151C123.301 13.1378 120.772 12.106 120.198 11.879C119.624 11.6521 117.096 12.9108 115.71 14.5151C114.324 16.1195 114.448 17.729 113.068 20.0246C111.687 22.3202 106.862 33.4371 106.278 35.6295C105.694 37.822 105.016 39.0704 105.13 40.1072C105.244 41.1441 110.766 47.1024 112.147 48.7119C113.528 50.3214 118.818 55.8257 118.818 55.8257C118.818 55.8257 120.772 65.4621 121.346 68.9081C121.92 72.354 121.579 81.8718 121.579 81.8718C121.579 81.8718 127.903 80.4944 133.886 79.8083C139.869 79.1222 146.421 76.8266 147.228 76.8266H148.034C148.034 76.8266 143.546 71.3172 143.546 70.5124C143.546 69.8727 143.696 58.1832 143.753 53.4888C145.423 51.7349 147.786 49.2381 148.639 48.2425C150.02 46.633 155.543 40.6695 155.657 39.6378C155.77 38.6061 155.077 37.3525 154.503 35.1704Z" stroke="black" stroke-linecap="round" stroke-linejoin="round"/>
<path d="M122.37 15.8926C122.37 15.8926 119.495 13.4835 119.268 14.5152C119.04 15.5469 120.995 16.9243 120.995 16.9243" stroke="black" stroke-linecap="round" stroke-linejoin="round"/>
<path d="M118.467 15.6656C118.497 15.9669 118.468 16.2712 118.381 16.5611C118.293 16.851 118.149 17.1209 117.957 17.3553C117.765 17.5896 117.528 17.7838 117.261 17.9268C116.993 18.0697 116.7 18.1586 116.398 18.1882" stroke="black" stroke-linecap="round" stroke-linejoin="round"/>
<path d="M120.08 16.2382L117.779 15.0879L117.893 14.2883L118.58 13.9426" stroke="black" stroke-linecap="round" stroke-linejoin="round"/>
<path d="M120.302 12.6169C120.416 13.2527 120.487 13.8956 120.513 14.5411" stroke="black" stroke-linecap="round" stroke-linejoin="round"/>
<path d="M121.585 12.9366C121.711 13.7156 121.711 14.51 121.585 15.289" stroke="black" stroke-linecap="round" stroke-linejoin="round"/>
<path d="M122.763 13.4731C122.815 13.8311 122.773 14.1962 122.641 14.5332C122.51 14.8703 122.294 15.1679 122.014 15.3973" stroke="black" stroke-linecap="round" stroke-linejoin="round"/>
<path d="M138.401 15.4335C138.401 15.4335 142.393 14.4018 141.819 15.547C141.245 16.6922 139.404 17.043 139.404 17.043" stroke="black" stroke-linecap="round" stroke-linejoin="round"/>
<path d="M144.234 17.1563C143.732 16.7594 143.191 16.4137 142.62 16.1245C142.046 15.8924 141.933 15.0928 141.933 15.0928C141.933 15.0928 143.2 14.8658 143.2 14.2932C143.2 13.7206 142.279 13.2615 142.279 13.2615L142.16 13.8392" stroke="black" stroke-linecap="round" stroke-linejoin="round"/>
<path d="M140.66 12.3795C140.66 12.3795 140.205 14.6545 141.931 15.0672" stroke="black" stroke-linecap="round" stroke-linejoin="round"/>
<path d="M139.373 12.5083C139.373 12.5083 139.053 14.221 140.123 15.0876" stroke="black" stroke-linecap="round" stroke-linejoin="round"/>
<path d="M138.401 13.1533C138.401 13.1533 138.076 14.6493 138.824 15.1807" stroke="black" stroke-linecap="round" stroke-linejoin="round"/>
<path d="M133.881 79.8084C139.864 79.1171 146.416 76.8266 147.223 76.8266H148.029C148.029 76.8266 143.541 71.3172 143.541 70.5124C143.541 69.8728 143.691 58.1832 143.748 53.4889L146.333 50.7496C145.066 50.373 143.696 49.7179 143.189 48.5881C142.558 47.1901 142.863 44.7707 143.189 43.089L142.155 44.1207C140.891 44.7186 139.582 45.2171 138.24 45.6116C137.063 45.9768 135.924 46.4536 134.838 47.0354C134.129 46.9528 133.416 46.8754 133.033 46.8754C132.226 46.8754 126.595 47.9072 126.595 47.9072C125.293 47.1349 123.905 46.5185 122.458 46.0707C121.117 45.6762 119.808 45.1777 118.544 44.5798L118.378 44.4148C118.621 46.2962 118.676 48.197 118.544 50.0893C118.327 51.7865 116.961 52.5809 116.015 52.9317C117.489 54.4793 118.776 55.8257 118.776 55.8257C118.776 55.8257 120.731 65.4621 121.305 68.9081C121.879 72.3541 121.538 81.8718 121.538 81.8718C121.538 81.8718 127.898 80.4738 133.881 79.8084Z" fill="url(#paint9_linear_38_2612)" stroke="black" stroke-linecap="round" stroke-linejoin="round"/>
<path d="M131.378 58.4772C130.906 57.971 130.475 57.4295 130.086 56.8574" stroke="black" stroke-linecap="round" stroke-linejoin="round"/>
<path d="M143.541 70.5125C141.319 67.8849 138.898 65.4308 136.301 63.1717C134.972 62.0419 133.902 61.0618 133.054 60.2261" stroke="black" stroke-linecap="round" stroke-linejoin="round"/>
<path d="M124.299 42.6763C124.299 42.6763 123.673 41.4228 122.313 38.9208C120.953 36.4189 122.101 32.0443 127.226 30.3729C132.35 28.7015 135.588 31.8328 136.317 33.9169C137.046 36.001 136.42 38.2966 136.001 39.5502C135.753 40.2898 135.614 41.0612 135.588 41.8406C135.318 41.5176 135.001 41.2375 134.646 41.0101C133.912 40.4942 132.661 34.959 130.985 34.5463C129.31 34.1336 125.762 35.0776 125.473 37.6569C125.183 40.2363 125.137 44.2394 124.299 42.6763Z" fill="black" stroke="black" stroke-linecap="round" stroke-linejoin="round"/>
<path d="M135.169 41.4228C135.169 41.4228 135.795 39.6534 136.633 40.4891C137.47 41.3248 137.046 43.0684 136.524 43.8216C136.002 44.5748 135.588 44.1363 135.273 43.3057C135.086 42.6956 135.051 42.0496 135.169 41.4228Z" fill="white"/>
<mask id="mask5_38_2612" style="mask-type:luminance" maskUnits="userSpaceOnUse" x="135" y="40" width="3" height="5">
<path d="M135.169 41.4228C135.169 41.4228 135.795 39.6534 136.633 40.4891C137.47 41.3248 137.046 43.0684 136.524 43.8216C136.002 44.5748 135.588 44.1363 135.273 43.3057C135.086 42.6956 135.051 42.0496 135.169 41.4228Z" fill="white"/>
</mask>
<g mask="url(#mask5_38_2612)">
<path d="M135.169 41.4228C135.169 41.4228 135.795 39.6534 136.633 40.4891C137.47 41.3248 137.046 43.0684 136.524 43.8216C136.002 44.5748 135.588 44.1363 135.273 43.3057C135.086 42.6956 135.051 42.0496 135.169 41.4228Z" fill="#E4E7EB" stroke="black" stroke-linecap="round" stroke-linejoin="round"/>
</g>
<path d="M135.169 41.4228C135.169 41.4228 135.795 39.6534 136.633 40.4891C137.47 41.3248 137.046 43.0684 136.524 43.8216C136.002 44.5748 135.588 44.1363 135.273 43.3057C135.086 42.6956 135.051 42.0496 135.169 41.4228Z" stroke="black" stroke-linecap="round" stroke-linejoin="round"/>
<path d="M124.776 42.4546C124.776 42.4546 123.695 40.907 123.116 41.9388C122.537 42.9705 123.416 44.5645 124.119 45.1217C124.822 45.6788 125.107 45.1732 125.184 44.286C125.197 43.6517 125.057 43.0236 124.776 42.4546Z" fill="white"/>
<mask id="mask6_38_2612" style="mask-type:luminance" maskUnits="userSpaceOnUse" x="122" y="41" width="4" height="5">
<path d="M124.776 42.4546C124.776 42.4546 123.695 40.907 123.116 41.9388C122.537 42.9705 123.416 44.5645 124.119 45.1217C124.822 45.6788 125.107 45.1732 125.184 44.286C125.197 43.6517 125.057 43.0236 124.776 42.4546Z" fill="white"/>
</mask>
<g mask="url(#mask6_38_2612)">
<path d="M124.776 42.4546C124.776 42.4546 123.695 40.907 123.116 41.9388C122.537 42.9705 123.416 44.5645 124.119 45.1217C124.822 45.6788 125.107 45.1732 125.184 44.286C125.197 43.6517 125.057 43.0236 124.776 42.4546Z" fill="#E4E7EB" stroke="black" stroke-linecap="round" stroke-linejoin="round"/>
</g>
<path d="M124.776 42.4546C124.776 42.4546 123.695 40.907 123.116 41.9388C122.537 42.9705 123.416 44.5645 124.119 45.1217C124.822 45.6788 125.107 45.1732 125.184 44.286C125.197 43.6517 125.057 43.0236 124.776 42.4546Z" stroke="black" stroke-linecap="round" stroke-linejoin="round"/>
<path d="M126.182 47.3655C126.135 48.8664 126.239 50.3682 126.492 51.8484C126.716 53.1886 127.031 54.5122 127.433 55.8102L131.198 52.2662L135.898 54.7682C135.898 54.7682 136.633 49.9758 135.169 47.8865C133.706 45.7973 128.897 45.5961 127.645 46.3389C127.102 46.5945 126.607 46.9418 126.182 47.3655Z" fill="white" stroke="black" stroke-linecap="round" stroke-linejoin="round"/>
<path d="M127.542 48.4128C127.542 48.4128 130.262 55.5008 131.725 54.9798C133.189 54.4588 133.608 48.2013 133.608 48.2013C133.608 48.2013 129.093 49.1402 127.542 48.4128Z" fill="white"/>
<mask id="mask7_38_2612" style="mask-type:luminance" maskUnits="userSpaceOnUse" x="127" y="48" width="7" height="8">
<path d="M127.542 48.4128C127.542 48.4128 130.262 55.5008 131.725 54.9798C133.189 54.4588 133.608 48.2013 133.608 48.2013C133.608 48.2013 129.093 49.1402 127.542 48.4128Z" fill="white"/>
</mask>
<g mask="url(#mask7_38_2612)">
<path d="M127.542 48.4128C127.542 48.4128 130.262 55.5008 131.725 54.9798C133.189 54.4588 133.608 48.2013 133.608 48.2013C133.608 48.2013 129.093 49.1402 127.542 48.4128Z" fill="#E4E7EB" stroke="black" stroke-linecap="round" stroke-linejoin="round"/>
<path opacity="0.25" d="M127.542 48.4128C127.542 48.4128 130.262 55.5008 131.725 54.9798C133.189 54.4588 133.608 48.2013 133.608 48.2013C133.608 48.2013 129.093 49.1402 127.542 48.4128Z" fill="#1F3D76"/>
</g>
<path d="M127.542 48.4128C127.542 48.4128 130.262 55.5008 131.725 54.9798C133.189 54.4588 133.608 48.2013 133.608 48.2013C133.608 48.2013 129.093 49.1402 127.542 48.4128Z" stroke="black" stroke-linecap="round" stroke-linejoin="round"/>
<path d="M123.984 39.6532C123.984 39.6532 124.501 44.2392 125.137 46.3233C125.773 48.4074 128.188 50.3006 131.425 49.7796C134.663 49.2586 135.816 44.5539 135.816 44.2392C135.816 43.9245 135.609 38.2964 134.352 36.2123C133.096 34.1282 130.696 32.1473 127.351 33.7104C124.005 35.2735 123.674 38.5079 123.984 39.6532Z" fill="white"/>
<mask id="mask8_38_2612" style="mask-type:luminance" maskUnits="userSpaceOnUse" x="123" y="33" width="13" height="17">
<path d="M123.984 39.6532C123.984 39.6532 124.501 44.2392 125.137 46.3233C125.773 48.4074 128.188 50.3006 131.425 49.7796C134.663 49.2586 135.816 44.5539 135.816 44.2392C135.816 43.9245 135.609 38.2964 134.352 36.2123C133.096 34.1282 130.696 32.1473 127.351 33.7104C124.005 35.2735 123.674 38.5079 123.984 39.6532Z" fill="white"/>
</mask>
<g mask="url(#mask8_38_2612)">
<path d="M123.984 39.6532C123.984 39.6532 124.501 44.2392 125.137 46.3233C125.773 48.4074 128.188 50.3006 131.425 49.7796C134.663 49.2586 135.816 44.5539 135.816 44.2392C135.816 43.9245 135.609 38.2964 134.352 36.2123C133.096 34.1282 130.696 32.1473 127.351 33.7104C124.005 35.2735 123.674 38.5079 123.984 39.6532Z" fill="#E4E7EB" stroke="black" stroke-linecap="round" stroke-linejoin="round"/>
<path opacity="0.25" d="M135.816 44.2393C135.816 43.9246 135.61 38.2965 134.353 36.2124C134.103 35.7953 133.816 35.4016 133.495 35.0363C133.8 36.3362 135.382 43.3365 134.131 45.725C132.75 48.3662 129.761 48.5984 127 47.221C124.931 46.1893 124.362 40.2001 124.192 37.1616C123.907 37.9606 123.843 38.8211 124.006 39.6533C124.006 39.6533 124.523 44.2393 125.159 46.3234C125.795 48.4075 128.21 50.3007 131.447 49.7797C134.684 49.2587 135.816 44.554 135.816 44.2393Z" fill="#1F3D76"/>
</g>
<path d="M123.984 39.6532C123.984 39.6532 124.501 44.2392 125.137 46.3233C125.773 48.4074 128.188 50.3006 131.425 49.7796C134.663 49.2586 135.816 44.5539 135.816 44.2392C135.816 43.9245 135.609 38.2964 134.352 36.2123C133.096 34.1282 130.696 32.1473 127.351 33.7104C124.005 35.2735 123.674 38.5079 123.984 39.6532Z" stroke="black" stroke-linecap="round" stroke-linejoin="round"/>
<path d="M126.957 42.3357C127.873 42.6033 128.844 42.6264 129.772 42.4029C130.701 42.1793 131.554 41.7168 132.247 41.0615C132.712 41.2163 132.537 44.0174 129.966 44.425C129.292 44.5289 128.603 44.3699 128.043 43.9809C127.482 43.5919 127.094 43.0029 126.957 42.3357Z" fill="white" stroke="black" stroke-linecap="round" stroke-linejoin="round"/>
<path d="M128.441 39.8544C128.441 39.8544 127.8 40.7469 128.12 41.0615C128.441 41.3762 129.713 41.4433 130.354 40.7469C130.995 40.0504 129.972 39.4108 129.972 39.4108" stroke="black" stroke-linecap="round" stroke-linejoin="round"/>
<path d="M125.991 40.2775C125.991 40.2775 126.306 39.2457 127.977 39.2457" stroke="black" stroke-linecap="round" stroke-linejoin="round"/>
<path d="M130.882 38.8177C131.187 38.4814 131.605 38.2677 132.057 38.2164C132.509 38.1652 132.965 38.2799 133.338 38.5392" stroke="black" stroke-linecap="round" stroke-linejoin="round"/>
<path d="M127.748 37.141C127.748 37.141 125.359 36.6664 125.064 38.8279" stroke="black" stroke-width="2" stroke-linecap="round" stroke-linejoin="round"/>
<path d="M130.283 36.8728C130.283 36.8728 131.968 35.5109 133.535 36.9708" stroke="black" stroke-width="2" stroke-linecap="round" stroke-linejoin="round"/>
<path d="M70.9236 39.0703C70.9236 39.0703 70.9236 36.6405 68.3018 34.866C65.6801 33.0914 59.3972 34.118 57.0547 37.11C54.7122 40.102 54.5209 42.2686 51.8061 43.094C49.0912 43.9194 42.9015 44.8789 38.5991 49.3566C34.2968 53.8344 36.1635 63.0065 38.1337 63.7545C40.1039 64.5025 37.6631 63.0993 37.9424 60.6593C37.9935 59.9862 38.2308 59.3406 38.628 58.7941C39.0251 58.2476 39.5665 57.8218 40.1918 57.5641C40.1918 57.5641 37.6631 61.5827 43.0049 66.8187C48.3466 72.0548 54.252 70.8425 59.2214 69.8107C64.1908 68.779 70.2772 65.137 70.7477 60.8347C71.2183 56.5323 69.6204 54.1026 70.7477 52.1423C71.875 50.182 75.9964 50.4554 76.56 46.7206C77.1237 42.9857 75.6086 38.0437 70.9236 39.0703Z" fill="black" stroke="black" stroke-linecap="round" stroke-linejoin="round"/>
<path d="M88.9753 105.88C88.9753 105.88 91.5919 102.579 92.5951 102.47C93.5983 102.362 95.0876 104.632 95.7391 106.365C96.3907 108.098 97.9058 111.658 97.9058 113.391C97.9058 116.419 96.6027 117.389 96.0649 116.847C95.5271 116.306 94.1102 112.958 93.3553 112.308C92.8742 111.907 92.3139 111.612 91.7109 111.441C91.7109 111.441 90.0458 107.237 88.9753 105.88Z" fill="white" stroke="black" stroke-linecap="round" stroke-linejoin="round"/>
<path d="M91.6285 103.296C91.6285 103.296 94.7984 106.458 95.9257 109.486C97.053 112.514 97.3995 115.47 96.3808 116.708" stroke="black" stroke-linecap="round" stroke-linejoin="round"/>
<path d="M83.1428 129.285C83.1428 129.285 86.2816 129.502 87.3676 129.61C88.4535 129.718 88.4535 132.313 88.0191 134.15C87.5847 135.986 87.0418 137.178 87.502 139.231C87.9622 141.284 86.7419 143.554 86.0903 144.529C85.4387 145.504 84.0219 145.287 83.9236 144.529C83.8254 143.771 84.2494 139.339 82.7343 136.853C81.2191 134.366 81.4053 131.029 83.1428 129.285Z" fill="white" stroke="black" stroke-linecap="round" stroke-linejoin="round"/>
<path d="M86.0844 129.481C86.7456 130.686 86.9839 132.077 86.7614 133.433C86.4203 135.801 86.8751 139.53 86.8751 140.433C86.8751 141.336 85.6297 144.833 85.1801 144.947" stroke="black" stroke-linecap="round" stroke-linejoin="round"/>
<path d="M97.3531 18.054C96.7894 18.054 94.54 18.6163 94.3539 19.2715C94.1677 19.9266 93.8884 26.2821 93.8884 26.2821C93.8884 26.2821 89.9481 33.7621 88.6398 36.5685C87.3315 39.3748 83.8565 46.1068 83.8565 46.1068L75.1433 55.1758C75.1433 55.1758 73.8298 55.8309 71.5804 57.136C71.3684 57.2598 71.146 57.3991 70.9236 57.5384L66.7868 58.4463L63.2394 57.7757C61.5566 56.4671 59.8045 55.2496 57.9908 54.1285C55.7413 52.8234 54.4279 52.1683 54.4279 52.1683L45.7146 43.0993C45.7146 43.0993 42.2448 36.3931 40.9313 33.5609C39.6179 30.7288 35.6827 23.2746 35.6827 23.2746C35.6827 23.2746 35.4035 16.9191 35.2173 16.264C35.0311 15.6088 32.7765 15.0465 32.2181 15.0465C31.6596 15.0465 30.6254 18.0385 30.9977 18.6937C31.37 19.3488 32.3939 19.3437 32.3939 19.3437C32.3462 20.0909 32.3462 20.8404 32.3939 21.5877C32.487 22.0571 33.8935 22.9909 33.8935 22.9909C33.8935 22.9909 35.8637 31.1261 37.172 36.7335C38.4803 42.341 40.1712 46.0862 40.921 46.7413C41.6708 47.3965 49.0758 54.8714 50.5754 57.3991C51.7856 59.2696 53.2009 60.9999 54.795 62.5578C54.795 62.5578 53.9521 66.6847 53.9521 68.9133C53.9521 71.1418 56.2016 75.9239 56.9514 78.0751C57.7012 80.2262 58.6371 90.2289 58.6371 90.5126C58.6371 90.7963 59.1025 96.9609 59.1025 96.9609C59.1025 96.9609 54.0452 107.995 52.4525 115.847C50.8598 123.698 51.6045 128.191 55.2604 129.873C58.9164 131.555 75.5052 133.892 75.9758 134.454C76.4464 135.016 76.8187 135.388 77.4754 135.388C78.1321 135.388 78.975 135.016 79.5438 135.388C80.1127 135.759 80.1023 136.043 80.7591 136.043C81.0728 136.085 81.3721 136.2 81.6326 136.38C81.8932 136.559 82.1077 136.797 82.2587 137.075C82.4448 137.446 83.5721 136.698 83.9445 133.892C84.3168 131.085 83.7583 129.765 83.1946 129.687C82.631 129.61 82.7292 128.656 81.7933 128.656C80.7867 128.72 79.7851 128.845 78.794 129.032C78.3057 128.886 77.8029 128.792 77.2944 128.754C76.7308 128.754 76.0741 128.284 75.6966 128.191C75.3191 128.099 69.1396 125.571 69.1396 125.571L68.9018 125.447C75.1588 121.888 84.0324 115.589 84.0324 115.589C84.0324 115.589 86.5817 115.429 87.6987 114.475C88.4557 113.799 89.1482 113.055 89.7671 112.251L91.6804 111.457C91.6562 110.207 91.2681 108.992 90.5634 107.959C89.4517 106.53 88.9707 105.896 88.9707 105.896C88.9707 105.896 85.9457 107.325 84.989 107.645C84.0324 107.964 82.6 108.119 81.8036 108.914C81.0073 109.708 78.9388 111.297 78.9388 111.297L71.932 114.949C71.932 114.949 80.8521 103.512 81.9639 98.7458C82.9206 94.6601 81.4468 90.1463 79.0061 86.8499C77.16 84.3738 74.5693 82.4857 72.6043 80.0869C71.6631 78.9469 70.9443 78.1008 71.0116 77.6108C71.1201 76.8524 72.0096 73.035 72.8163 69.7851L75.3294 64.9772C75.9499 64.3324 78.7216 60.8503 78.9802 60.4066C80.4798 57.8789 87.8848 50.3988 88.6346 49.7437C89.3844 49.0885 91.0702 45.3537 92.3837 39.741C93.6971 34.1284 95.6621 25.9984 95.6621 25.9984C95.6621 25.9984 97.0687 25.0646 97.1617 24.5952C97.2095 23.8479 97.2095 23.0984 97.1617 22.3512C97.1617 22.3512 98.196 22.3512 98.5683 21.696C98.9406 21.0409 97.9167 18.054 97.3531 18.054Z" fill="white" stroke="black" stroke-linecap="round" stroke-linejoin="round"/>
<path d="M88.9754 105.88C88.9754 105.88 85.9503 107.309 84.9937 107.629C84.037 107.949 82.6047 108.103 81.8083 108.898C81.012 109.692 78.9435 111.281 78.9435 111.281L71.9367 114.934C71.9367 114.934 80.8568 103.497 81.9686 98.7302C82.9253 94.6445 81.4515 90.1307 79.0107 86.8343C78.0804 85.6427 77.0531 84.5298 75.9391 83.507C73.982 85.2105 71.856 86.7108 69.5942 87.9847C66.2869 89.9191 62.4421 90.7369 58.6315 90.3164C58.6315 90.4144 58.6315 90.4763 58.6315 90.4969C58.6315 90.7755 59.0969 96.9453 59.0969 96.9453C59.0969 96.9453 54.0396 107.98 52.4469 115.831C50.8542 123.683 51.5988 128.176 55.2548 129.858C58.9107 131.539 75.4996 133.876 75.9702 134.438C76.4407 135.001 76.813 135.372 77.4698 135.372C78.1265 135.372 78.9694 135.001 79.5382 135.372C80.107 135.744 80.0967 136.027 80.7534 136.027C81.0671 136.069 81.3664 136.185 81.627 136.364C81.8876 136.543 82.1021 136.781 82.253 137.059C82.4392 137.43 83.5665 136.682 83.9388 133.876C84.3111 131.07 83.7526 129.749 83.189 129.672C82.6253 129.594 82.7236 128.64 81.7876 128.64C80.7811 128.704 79.7794 128.83 78.7884 129.017C78.3001 128.87 77.7973 128.777 77.2888 128.738C76.7251 128.738 76.0684 128.269 75.6909 128.176C75.3134 128.083 69.134 125.555 69.134 125.555L68.8961 125.431C75.1531 121.872 84.0267 115.573 84.0267 115.573C84.0267 115.573 86.576 115.413 87.693 114.459C88.4501 113.783 89.1425 113.039 89.7614 112.236L91.6747 111.441C91.6505 110.192 91.2624 108.977 90.5578 107.944C89.4563 106.515 88.9754 105.88 88.9754 105.88Z" fill="#3A3A3A" stroke="#5F5F5F" stroke-linecap="round" stroke-linejoin="round"/>
<path d="M65.0436 96.3058L66.8845 97.1724C66.8845 97.1724 59.1899 115.661 58.0937 120.959C56.9974 126.257 58.3109 128.852 60.369 128.852C62.427 128.852 68.2807 125.824 68.2807 125.824" stroke="white" stroke-linecap="round" stroke-linejoin="round"/>
<path d="M71.9367 114.934C71.9367 114.934 67.3189 121.743 66.0055 123.337" stroke="white" stroke-linecap="round" stroke-linejoin="round"/>
<path d="M34.3739 17.569C34.3739 17.569 32.4968 14.9484 32.2175 14.3861C31.9383 13.8238 31.3746 15.4178 31.84 16.3516C32.138 16.9321 32.5176 17.4671 32.9673 17.9404C32.9673 17.9404 32.2175 20.1844 33.3397 21.1182" fill="white"/>
<path d="M34.3739 17.569C34.3739 17.569 32.4968 14.9484 32.2175 14.3861C31.9383 13.8238 31.3746 15.4178 31.84 16.3516C32.138 16.9321 32.5176 17.4671 32.9673 17.9404C32.9673 17.9404 32.2175 20.1844 33.3397 21.1182" stroke="black" stroke-linecap="round" stroke-linejoin="round"/>
<path d="M94.6637 21.0719C94.6637 21.0719 96.5356 18.4565 96.82 17.8942C97.1044 17.3319 97.6629 18.9259 97.1924 19.8596C96.8952 20.4393 96.5174 20.9742 96.0702 21.4485C96.0702 21.4485 96.82 23.6925 95.6927 24.6262" fill="white"/>
<path d="M94.6637 21.0719C94.6637 21.0719 96.5356 18.4565 96.82 17.8942C97.1044 17.3319 97.6629 18.9259 97.1924 19.8596C96.8952 20.4393 96.5174 20.9742 96.0702 21.4485C96.0702 21.4485 96.82 23.6925 95.6927 24.6262" stroke="black" stroke-linecap="round" stroke-linejoin="round"/>
<path d="M54.8052 62.5424C54.8052 62.5424 53.9623 66.6693 53.9623 68.8979C53.9623 71.1264 56.2117 75.9085 56.9615 78.0596C57.7114 80.2108 58.6473 90.2134 58.6473 90.4972C58.6473 90.5746 58.6835 91.1265 58.7404 91.8797C62.0551 92.8031 68.8912 93.1178 77.0409 84.5957C75.562 83.0945 73.9382 81.6965 72.6093 80.0715C71.6681 78.9314 70.9493 78.0854 71.0166 77.5954C71.1252 76.837 72.0146 73.0196 72.8213 69.7697L75.3344 64.9618C75.955 64.317 78.7267 60.8349 78.9852 60.3912C80.4848 57.8635 87.8898 50.3834 88.6396 49.7283C89.3894 49.0731 91.0752 45.3382 92.3887 39.7256C92.8696 37.6621 93.4229 35.2427 93.9762 33.0193C92.9188 32.8001 91.896 32.4391 90.9356 31.9463C90.0307 33.7106 89.1412 35.4749 88.6396 36.5479C87.3262 39.3542 83.8564 46.0862 83.8564 46.0862L75.1431 55.1552C75.1431 55.1552 73.8296 55.8103 71.5802 57.1155C71.3682 57.2393 71.1458 57.3786 70.9235 57.5178L66.7866 58.4258L63.2392 57.7758C61.5564 56.4671 59.8044 55.2497 57.9906 54.1286C55.7412 52.8235 54.4277 52.1683 54.4277 52.1683L45.7144 43.0994C45.7144 43.0994 42.2446 36.3931 40.9312 33.561C40.3262 32.2713 39.1678 29.9861 38.0923 27.8865C37.1864 28.2663 36.2612 28.5986 35.3206 28.8821C35.9256 31.3892 36.6133 34.2935 37.1821 36.7233C38.4956 42.3359 40.1814 46.0759 40.9312 46.7311C41.681 47.3862 49.086 54.8611 50.5856 57.3889C51.7961 59.2576 53.2114 60.9861 54.8052 62.5424Z" fill="url(#paint10_linear_38_2612)"/>
<mask id="mask9_38_2612" style="mask-type:luminance" maskUnits="userSpaceOnUse" x="35" y="27" width="59" height="66">
<path d="M54.8052 62.5424C54.8052 62.5424 53.9623 66.6693 53.9623 68.8979C53.9623 71.1264 56.2117 75.9085 56.9615 78.0596C57.7114 80.2108 58.6473 90.2134 58.6473 90.4972C58.6473 90.5746 58.6835 91.1265 58.7404 91.8797C62.0551 92.8031 68.8912 93.1178 77.0409 84.5957C75.562 83.0945 73.9382 81.6965 72.6093 80.0715C71.6681 78.9314 70.9493 78.0854 71.0166 77.5954C71.1252 76.837 72.0146 73.0196 72.8213 69.7697L75.3344 64.9618C75.955 64.317 78.7267 60.8349 78.9852 60.3912C80.4848 57.8635 87.8898 50.3834 88.6396 49.7283C89.3894 49.0731 91.0752 45.3382 92.3887 39.7256C92.8696 37.6621 93.4229 35.2427 93.9762 33.0193C92.9188 32.8001 91.896 32.4391 90.9356 31.9463C90.0307 33.7106 89.1412 35.4749 88.6396 36.5479C87.3262 39.3542 83.8564 46.0862 83.8564 46.0862L75.1431 55.1552C75.1431 55.1552 73.8296 55.8103 71.5802 57.1155C71.3682 57.2393 71.1458 57.3786 70.9235 57.5178L66.7866 58.4258L63.2392 57.7758C61.5564 56.4671 59.8044 55.2497 57.9906 54.1286C55.7412 52.8235 54.4277 52.1683 54.4277 52.1683L45.7144 43.0994C45.7144 43.0994 42.2446 36.3931 40.9312 33.561C40.3262 32.2713 39.1678 29.9861 38.0923 27.8865C37.1864 28.2663 36.2612 28.5986 35.3206 28.8821C35.9256 31.3892 36.6133 34.2935 37.1821 36.7233C38.4956 42.3359 40.1814 46.0759 40.9312 46.7311C41.681 47.3862 49.086 54.8611 50.5856 57.3889C51.7961 59.2576 53.2114 60.9861 54.8052 62.5424Z" fill="white"/>
</mask>
<g mask="url(#mask9_38_2612)">
<path d="M55.0641 52.4882C54.6504 52.2716 54.428 52.1632 54.428 52.1632L53.9109 51.6216L49.6862 56.1302C49.9885 56.5114 50.2716 56.9074 50.5342 57.3167L55.0641 52.4882Z" fill="black"/>
<path d="M51.1081 48.7068L50.11 47.675L45.4561 51.3429C45.7818 51.6885 46.1128 52.0393 46.4334 52.3746L51.1081 48.7068Z" fill="black"/>
<path d="M58.6371 54.5157L57.9907 54.1236L57.3857 53.7728L52.2146 59.6847C52.5352 60.0819 52.8506 60.4533 53.1506 60.7886L58.6371 54.5157Z" fill="black"/>
<path d="M46.955 44.3632L41.577 47.3345L42.6112 48.3663L47.9582 45.4052L46.955 44.3632Z" fill="black"/>
<path d="M60.152 55.5164L57.9129 58.008C57.8106 58.0399 57.7169 58.0946 57.6389 58.1679C57.5404 58.2638 57.4752 58.3885 57.4527 58.5239L54.2983 62.0318C54.6086 62.3516 54.8154 62.5476 54.8154 62.5476C54.8154 62.5476 54.6603 63.3008 54.4845 64.3428L55.0585 63.4762C56.4599 64.0746 60.3589 65.1527 70.2667 65.1527C71.2802 65.1527 72.3575 65.1407 73.4986 65.1166C73.6026 65.1142 73.7048 65.0896 73.7985 65.0444C74.1508 65.326 74.5629 65.5237 75.0034 65.6222L75.3447 64.967C75.4688 64.8381 75.6808 64.5904 75.9393 64.2809C75.7672 64.292 75.5944 64.292 75.4222 64.2809C73.6382 64.0643 72.5471 60.2726 72.0765 56.8628L71.5594 57.1465C71.3474 57.2703 71.1251 57.4096 70.9027 57.5489L70.7165 57.5901C70.7941 58.106 70.882 58.6219 70.9958 59.1377C64.1441 60.8968 60.5812 59.4679 59.2522 58.6683L61.3207 56.3779C60.9639 56.0838 60.5657 55.8001 60.152 55.5164ZM64.9715 61.3869C67.1255 61.357 69.2674 61.059 71.3474 60.4996C71.6339 61.6191 72.0705 62.695 72.6454 63.698C61.9722 63.8682 57.5613 62.8417 55.9893 62.2948L58.3008 59.7155C59.2833 60.3552 61.3827 61.3869 64.9715 61.3869Z" fill="black"/>
<path d="M41.9398 35.6399L37.384 37.5641C37.5081 38.049 37.6271 38.5133 37.7512 38.9672L42.581 36.9038L41.9398 35.6399Z" fill="black"/>
<path d="M39.8357 31.3119L36.2159 32.648C36.3245 33.1174 36.4383 33.5817 36.5469 34.046L40.4717 32.6016L39.8357 31.3119Z" fill="black"/>
<path d="M44.748 41.2061C44.5463 40.8192 44.3291 40.3858 44.0964 39.9319L39.0081 42.9084C39.189 43.3985 39.3649 43.8473 39.5252 44.2497L44.748 41.2061Z" fill="black"/>
<path d="M86.0855 41.7117C85.8579 42.1708 85.6304 42.6196 85.4132 43.0426C86.8249 44.3168 88.4486 45.7148 90.1344 46.9993C90.3102 46.5763 90.486 46.112 90.6515 45.6013C89.033 44.3323 87.4506 42.9549 86.0855 41.7117Z" fill="black"/>
<path d="M71.2859 76.2695C71.3789 75.8413 71.4927 75.3306 71.622 74.7735C64.0774 75.8052 58.5288 74.9024 55.3848 74.0513C55.6071 74.6239 55.8295 75.1862 56.0467 75.7175C58.9559 76.3895 61.9341 76.7185 64.9202 76.6977C67.0492 76.6941 69.1757 76.5511 71.2859 76.2695Z" fill="black"/>
<path d="M87.8281 38.2244C89.1953 39.219 90.6123 40.1436 92.0736 40.9946C92.1822 40.5819 92.2856 40.1589 92.389 39.7256C92.389 39.6637 92.389 39.5966 92.4304 39.5347C91.0642 38.7276 89.7404 37.8512 88.4642 36.9089C88.2832 37.301 88.066 37.7446 87.8281 38.2244Z" fill="black"/>
<path d="M53.9678 68.6657C53.9678 68.7431 53.9678 68.8256 53.9678 68.8978C53.978 69.3025 54.0282 69.7051 54.1177 70.0998C57.1738 69.8728 63.4981 69.7284 72.4958 71.1315C72.6044 70.6776 72.7181 70.2236 72.8267 69.78V69.7335C63.555 68.2633 57.1066 68.4181 53.9678 68.6657Z" fill="black"/>
<path d="M75.262 82.852C74.9052 82.5116 74.5587 82.1659 74.2278 81.8203C68.8344 85.4314 62.417 86.9068 58.3784 87.4948C58.4353 88.0107 58.4818 88.5266 58.5232 88.9393C62.7428 88.346 69.5273 86.8036 75.262 82.852Z" fill="black"/>
<path d="M57.6188 81.3869C57.686 81.8512 57.7532 82.3412 57.8204 82.8416C58.3376 82.8416 58.9374 82.8416 59.5579 82.8416C64.2303 82.8888 68.8831 82.2331 73.3596 80.8968C73.1062 80.6183 72.8425 80.3397 72.6098 80.0456L72.3305 79.7103C66.8388 81.3508 61.0937 81.5055 57.6188 81.3869Z" fill="black"/>
<path d="M82.7963 47.1849C84.0322 48.7325 85.3818 50.2234 86.7263 51.6162L87.7605 50.5845C86.416 49.1762 85.0457 47.6544 83.815 46.1326L82.7963 47.1849Z" fill="black"/>
<path d="M83.1998 55.3151L84.1823 54.2834C82.6126 53.0852 81.1864 51.7108 79.9317 50.1874L78.9285 51.2191C80.195 52.7388 81.6276 54.1126 83.1998 55.3151Z" fill="black"/>
<path d="M78.9854 60.3912C79.1545 60.1095 79.3392 59.8374 79.5387 59.5762C78.7372 58.0698 77.5686 55.831 76.5343 53.7004L75.5001 54.8044C76.6429 57.1413 77.9047 59.5297 78.6441 60.8968C78.8044 60.6492 78.9337 60.4686 78.9854 60.3912Z" fill="black"/>
<path opacity="0.25" d="M93.8419 33.0142C91.6286 37.884 87.3987 47.1903 86.561 49.0422C85.4182 51.5803 76.3946 60.7059 74.8691 61.5932C73.3437 62.4805 72.4543 64.6369 71.8182 66.917C71.2132 69.0888 69.4602 70.8015 69.2947 73.1487C68.426 72.4883 66.7092 71.9364 64.3201 71.7352C59.7437 71.3534 55.4259 72.4987 55.4259 68.315C55.4259 64.1313 58.0941 60.0611 58.2234 58.8024C58.3527 57.5437 55.8085 59.8341 54.5364 58.9314C53.2644 58.0286 44.6235 48.1549 42.0793 45.003C40.4607 42.9808 37.5856 34.6134 35.7137 28.8099L35.3207 28.9337C35.9257 31.4409 36.6134 34.3452 37.1823 36.7749C38.4957 42.3875 40.1815 46.1276 40.9313 46.7776C41.6811 47.4275 49.0861 54.9128 50.5857 57.4405C51.7959 59.311 53.2112 61.0412 54.8053 62.5992C54.8053 62.5992 53.9624 66.7261 53.9624 68.9547C53.9624 71.1832 56.2119 75.9653 56.9617 78.1164C57.7115 80.2676 58.6475 90.2702 58.6475 90.554C58.6475 90.6314 58.6836 91.1833 58.7405 91.9365C59.1982 92.0622 59.6626 92.1621 60.1316 92.2357C60.0436 88.3151 59.3921 80.1438 60.509 78.3589C61.7242 76.4192 67.5883 76.3315 69.2999 75.2224C69.3726 77.2921 70.1145 79.2827 71.4149 80.897C72.3405 82.1093 74.4503 83.7652 76.4722 85.2148L77.0203 84.6576C75.5414 83.1565 73.9177 81.7585 72.5887 80.1335C71.6476 78.9934 70.9288 78.1474 70.996 77.6573C71.1046 76.899 71.994 73.0816 72.8007 69.8316L75.3139 65.0238C75.9344 64.3789 78.7061 60.8968 78.9646 60.4532C80.4643 57.9254 87.8693 50.4454 88.6191 49.7902C89.3689 49.1351 91.0546 45.4002 92.3681 39.7876C92.849 37.7241 93.4023 35.3047 93.9556 33.0813L93.8419 33.0142Z" fill="#1F3D76"/>
</g>
<path d="M54.8052 62.5424C54.8052 62.5424 53.9623 66.6693 53.9623 68.8978C53.9623 71.1264 56.2117 75.9085 56.9616 78.0596C57.7114 80.2108 58.6473 90.2134 58.6473 90.4972C58.6473 90.5745 58.6835 91.1265 58.7404 91.8797C62.0551 92.8031 68.8912 93.1178 77.0409 84.5957C75.562 83.0945 73.9382 81.6965 72.6093 80.0715C71.6681 78.9315 70.9493 78.0854 71.0166 77.5954C71.1252 76.837 72.0146 73.0196 72.8213 69.7697L75.3344 64.9618C75.955 64.317 78.7267 60.8349 78.9852 60.3912C80.4848 57.8635 87.8898 50.3834 88.6396 49.7283C89.3894 49.0731 91.0752 45.3382 92.3887 39.7256C92.8696 37.6621 93.4229 35.2427 93.9762 33.0193C92.9188 32.8001 91.896 32.4391 90.9356 31.9463C90.0307 33.7106 89.1412 35.4749 88.6396 36.5479C87.3262 39.3542 83.8564 46.0862 83.8564 46.0862L75.1431 55.1552C75.1431 55.1552 73.8296 55.8103 71.5802 57.1155C71.3682 57.2393 71.1458 57.3786 70.9235 57.5178L66.7866 58.4258L63.2392 57.7758C61.5564 56.4671 59.8044 55.2497 57.9906 54.1286C55.7412 52.8235 54.4277 52.1683 54.4277 52.1683L45.7144 43.0994C45.7144 43.0994 42.2446 36.3931 40.9312 33.561C40.3262 32.2713 39.1678 29.9861 38.0923 27.8865C37.1864 28.2663 36.2612 28.5986 35.3206 28.8821C35.9256 31.3892 36.6133 34.2935 37.1821 36.7233C38.4956 42.3359 40.1814 46.0759 40.9312 46.7311C41.681 47.3862 49.086 54.8611 50.5856 57.3889C51.7961 59.2576 53.2114 60.9861 54.8052 62.5424Z" stroke="black" stroke-linecap="round" stroke-linejoin="round"/>
<path d="M62.3036 50.4761C62.3036 50.4761 62.3966 56.3673 61.9261 57.7704C61.4555 59.1736 58.8234 61.8974 59.961 64.1311C61.0987 66.3648 65.2097 63.8473 66.6835 61.139C68.1572 58.4307 67.4384 57.5847 67.4384 57.5847V53.4578L62.3036 50.4761Z" fill="white"/>
<mask id="mask10_38_2612" style="mask-type:luminance" maskUnits="userSpaceOnUse" x="59" y="50" width="9" height="15">
<path d="M62.3036 50.4761C62.3036 50.4761 62.3966 56.3673 61.9261 57.7704C61.4555 59.1736 58.8234 61.8974 59.961 64.1311C61.0987 66.3648 65.2097 63.8473 66.6835 61.139C68.1572 58.4307 67.4384 57.5847 67.4384 57.5847V53.4578L62.3036 50.4761Z" fill="white"/>
</mask>
<g mask="url(#mask10_38_2612)">
<path d="M67.4593 53.4682L62.2882 50.4762C62.2882 50.4762 62.3813 56.3674 61.9107 57.7705C61.8422 57.9647 61.7574 58.1528 61.6573 58.3328C62.6393 58.6496 63.6926 58.6729 64.6876 58.3999C65.7338 57.9603 66.6735 57.3024 67.4438 56.4706L67.4593 53.4682Z" fill="url(#paint11_linear_38_2612)"/>
<path opacity="0.5" d="M67.4593 53.4682L62.2882 50.4762C62.2882 50.4762 62.3813 56.3674 61.9107 57.7705C61.8422 57.9647 61.7574 58.1528 61.6573 58.3328C62.6393 58.6496 63.6926 58.6729 64.6876 58.3999C65.7338 57.9603 66.6735 57.3024 67.4438 56.4706L67.4593 53.4682Z" fill="white"/>
</g>
<path d="M62.3036 50.4761C62.3036 50.4761 62.3966 56.3673 61.9261 57.7704C61.4555 59.1736 58.8234 61.8974 59.961 64.1311C61.0987 66.3648 65.2097 63.8473 66.6835 61.139C68.1572 58.4307 67.4384 57.5847 67.4384 57.5847V53.4578L62.3036 50.4761Z" stroke="black" stroke-linecap="round" stroke-linejoin="round"/>
<path d="M61.2689 46.5504C61.2689 46.5504 59.4901 44.8687 59.0195 46.0862C58.549 47.3036 59.7693 49.0782 60.4261 49.2639L61.0828 49.4496C61.3739 50.7823 62.0227 52.0109 62.9599 53.0039C64.4595 54.4999 66.1453 55.2479 68.0172 54.3142C69.8891 53.3805 71.3939 51.0385 71.8593 48.2373C72.1425 46.8532 72.2382 45.4374 72.1437 44.0279C72.1437 43.5584 71.3009 40.195 68.8601 39.3541C66.4193 38.5132 66.7038 39.5398 64.8318 41.691C63.5358 43.2289 62.3455 44.8524 61.2689 46.5504Z" fill="white"/>
<mask id="mask11_38_2612" style="mask-type:luminance" maskUnits="userSpaceOnUse" x="58" y="39" width="15" height="16">
<path d="M61.2689 46.5504C61.2689 46.5504 59.4901 44.8687 59.0195 46.0862C58.549 47.3036 59.7693 49.0782 60.4261 49.2639L61.0828 49.4496C61.3739 50.7823 62.0227 52.0109 62.9599 53.0039C64.4595 54.4999 66.1453 55.2479 68.0172 54.3142C69.8891 53.3805 71.3939 51.0385 71.8593 48.2373C72.1425 46.8532 72.2382 45.4374 72.1437 44.0279C72.1437 43.5584 71.3009 40.195 68.8601 39.3541C66.4193 38.5132 66.7038 39.5398 64.8318 41.691C63.5358 43.2289 62.3455 44.8524 61.2689 46.5504Z" fill="white"/>
</mask>
<g mask="url(#mask11_38_2612)">
<path d="M71.6315 42.2998C71.7867 43.8474 72.0452 47.8608 70.9283 49.785C69.5321 52.189 68.1307 54.4742 65.3383 53.3342C62.5459 52.1941 61.6513 49.2743 61.6513 49.2743C61.6513 49.2743 60.8912 49.4033 59.7432 48.387C59.6257 48.2772 59.489 48.1898 59.3398 48.1291C59.5671 48.6174 59.9485 49.0179 60.4258 49.2692L61.0825 49.4549C61.3736 50.7875 62.0224 52.0161 62.9596 53.0092C64.4592 54.5052 66.145 55.2532 68.0169 54.3195C69.8889 53.3858 71.3937 51.0437 71.859 48.2426C72.1422 46.8584 72.2379 45.4426 72.1435 44.0331C72.0603 43.4331 71.8878 42.8489 71.6315 42.2998Z" fill="url(#paint12_linear_38_2612)"/>
<path opacity="0.5" d="M71.6315 42.2998C71.7867 43.8474 72.0452 47.8608 70.9283 49.785C69.5321 52.189 68.1307 54.4742 65.3383 53.3342C62.5459 52.1941 61.6513 49.2743 61.6513 49.2743C61.6513 49.2743 60.8912 49.4033 59.7432 48.387C59.6257 48.2772 59.489 48.1898 59.3398 48.1291C59.5671 48.6174 59.9485 49.0179 60.4258 49.2692L61.0825 49.4549C61.3736 50.7875 62.0224 52.0161 62.9596 53.0092C64.4592 54.5052 66.145 55.2532 68.0169 54.3195C69.8889 53.3858 71.3937 51.0437 71.859 48.2426C72.1422 46.8584 72.2379 45.4426 72.1435 44.0331C72.0603 43.4331 71.8878 42.8489 71.6315 42.2998Z" fill="white"/>
</g>
<path d="M61.2689 46.5504C61.2689 46.5504 59.4901 44.8687 59.0195 46.0862C58.549 47.3036 59.7693 49.0782 60.4261 49.2639L61.0828 49.4496C61.3739 50.7823 62.0227 52.0109 62.9599 53.0039C64.4595 54.4999 66.1453 55.2479 68.0172 54.3142C69.8891 53.3805 71.3939 51.0385 71.8593 48.2373C72.1425 46.8532 72.2382 45.4374 72.1437 44.0279C72.1437 43.5584 71.3009 40.195 68.8601 39.3541C66.4193 38.5132 66.7037 39.5398 64.8318 41.691C63.5358 43.2289 62.3455 44.8524 61.2689 46.5504Z" stroke="black" stroke-linecap="round" stroke-linejoin="round"/>
<path d="M69.0504 44.683C69.0504 44.683 68.3941 45.8953 68.6732 46.179C68.9522 46.4627 69.8928 47.0199 69.4225 47.2984C68.9789 47.4897 68.5001 47.5864 68.0168 47.5822" stroke="black" stroke-linecap="round" stroke-linejoin="round"/>
<path d="M65.3025 47.9741C65.3025 47.9741 66.4246 49.2844 69.9875 48.815C69.9875 48.815 67.8312 50.9661 66.8848 50.9661C65.9385 50.9661 65.3025 47.9741 65.3025 47.9741Z" stroke="black" stroke-linecap="round" stroke-linejoin="round"/>
<path d="M64.6456 44.9616C64.6456 44.9616 65.9591 44.4974 66.7141 45.2454" stroke="black" stroke-linecap="round" stroke-linejoin="round"/>
<path d="M69.3307 45.7096C69.3307 45.7096 70.8303 45.2453 71.1095 46.2719" stroke="black" stroke-linecap="round" stroke-linejoin="round"/>
<path d="M64.5531 43.3727C64.8471 43.0338 65.2417 42.7971 65.6796 42.6969C66.1175 42.5968 66.576 42.6383 66.9887 42.8156" stroke="black" stroke-linecap="round" stroke-linejoin="round"/>
<path d="M69.5171 43.8474C69.5171 43.8474 70.7375 42.7228 71.5855 44.7811" stroke="black" stroke-linecap="round" stroke-linejoin="round"/>
<defs>
<linearGradient id="paint0_linear_38_2612" x1="127.387" y1="27.0714" x2="72.5844" y2="25.4545" gradientUnits="userSpaceOnUse">
<stop stop-color="#1D3F78"/>
<stop offset="1" stop-color="#4268A9"/>
</linearGradient>
<linearGradient id="paint1_linear_38_2612" x1="41.7532" y1="103.216" x2="5.87552" y2="102.156" gradientUnits="userSpaceOnUse">
<stop stop-color="#1D3F78"/>
<stop offset="1" stop-color="#4268A9"/>
</linearGradient>
<linearGradient id="paint2_linear_38_2612" x1="192.02" y1="76.7909" x2="81.547" y2="73.5302" gradientUnits="userSpaceOnUse">
<stop stop-color="#1D3F78"/>
<stop offset="1" stop-color="#4268A9"/>
</linearGradient>
<linearGradient id="paint3_linear_38_2612" x1="182.065" y1="165.05" x2="155.179" y2="164.773" gradientUnits="userSpaceOnUse">
<stop stop-color="#1D3F78"/>
<stop offset="1" stop-color="#4268A9"/>
</linearGradient>
<linearGradient id="paint4_linear_38_2612" x1="164.157" y1="155.131" x2="128.15" y2="154.76" gradientUnits="userSpaceOnUse">
<stop stop-color="#1D3F78"/>
<stop offset="1" stop-color="#4268A9"/>
</linearGradient>
<linearGradient id="paint5_linear_38_2612" x1="82.7015" y1="154.703" x2="45.8404" y2="154.323" gradientUnits="userSpaceOnUse">
<stop stop-color="#1D3F78"/>
<stop offset="1" stop-color="#4268A9"/>
</linearGradient>
<linearGradient id="paint6_linear_38_2612" x1="42.5431" y1="165.846" x2="13.9389" y2="165.552" gradientUnits="userSpaceOnUse">
<stop stop-color="#1D3F78"/>
<stop offset="1" stop-color="#4268A9"/>
</linearGradient>
<linearGradient id="paint7_linear_38_2612" x1="186.492" y1="186.854" x2="5.39985" y2="176.771" gradientUnits="userSpaceOnUse">
<stop stop-color="#1D3F78"/>
<stop offset="1" stop-color="#4268A9"/>
</linearGradient>
<linearGradient id="paint8_linear_38_2612" x1="148.051" y1="80.0837" x2="141.019" y2="80.0003" gradientUnits="userSpaceOnUse">
<stop stop-color="#1D3F78"/>
<stop offset="1" stop-color="#4268A9"/>
</linearGradient>
<linearGradient id="paint9_linear_38_2612" x1="148.029" y1="66.9243" x2="116.551" y2="66.6572" gradientUnits="userSpaceOnUse">
<stop stop-color="#1D3F78"/>
<stop offset="1" stop-color="#4268A9"/>
</linearGradient>
<linearGradient id="paint10_linear_38_2612" x1="93.9762" y1="67.494" x2="36.3041" y2="66.9544" gradientUnits="userSpaceOnUse">
<stop stop-color="#1D3F78"/>
<stop offset="1" stop-color="#4268A9"/>
</linearGradient>
<linearGradient id="paint11_linear_38_2612" x1="67.4593" y1="55.4621" x2="61.7545" y2="55.4201" gradientUnits="userSpaceOnUse">
<stop stop-color="#1D3F78"/>
<stop offset="1" stop-color="#4268A9"/>
</linearGradient>
<linearGradient id="paint12_linear_38_2612" x1="72.1787" y1="49.9398" x2="59.5555" y2="49.8058" gradientUnits="userSpaceOnUse">
<stop stop-color="#1D3F78"/>
<stop offset="1" stop-color="#4268A9"/>
</linearGradient>
</defs>
</svg>
